<svg height="512pt" viewBox="-106 0 512 512" width="512pt" xmlns="http://www.w3.org/2000/svg"><path d="m150.066406 0c-33.085937 0-60 26.914062-60 60v1.199219c0 65.769531-20.957031 73.945312-66.59375 130.472656-1.097656 1.949219-30.996094 28.96875-21.675781 74.9375 7.277344 35.894531 39.636719 65.601563 81.230469 65.371094 16.492187 18.414062 40.433594 30.019531 67.039062 30.019531 26.597656 0 50.535156-11.601562 67.023438-30.007812.160156 0 .316406.007812.472656.007812 41.253906 0 73.503906-29.5625 80.769531-65.386719 5.4375-26.828125-1.953125-53.480469-20.289062-73.226562-50.40625-60.535157-67.976563-69.78125-67.976563-132.1875v-1.199219c0-33.085938-26.917968-60-60-60zm103.25 210.519531c1.839844 3.148438 21.796875 19.628907 15.613282 50.128907-3.546876 17.496093-16.394532 32.089843-32.941407 38.15625 2.648438-8.46875 4.078125-17.472657 4.078125-26.804688h-30c0 33.085938-26.917968 60-60 60-33.085937 0-60-26.914062-60-60h-30c0 9.332031 1.425782 18.335938 4.074219 26.804688-16.542969-6.066407-29.394531-20.660157-32.941406-38.15625-6.210938-30.636719 14.136719-47.597657 15.613281-50.132813 45.1875-55.957031 73.253906-71.082031 73.253906-149.316406v-1.199219c0-16.542969 13.457032-30 30-30 16.539063 0 30 13.457031 30 30v1.199219c0 78.226562 28.105469 93.410156 73.25 149.320312zm0 0"/><path d="m141.066406 488 18 24c12.652344-9.492188 19.625-21.742188 19.625-34.5s-6.972656-25.007812-19.625-34.5c-4.847656-3.632812-7.625-7.460938-7.625-10.5s2.777344-6.867188 7.625-10.5l-18-24c-12.65625 9.492188-19.625 21.742188-19.625 34.5s6.96875 25.007812 19.625 34.5c4.84375 3.632812 7.625 7.460938 7.625 10.5s-2.78125 6.867188-7.625 10.5zm0 0"/><path d="m201.066406 488 18 24c12.652344-9.492188 19.625-21.742188 19.625-34.5s-6.972656-25.007812-19.625-34.5c-4.847656-3.632812-7.625-7.460938-7.625-10.5s2.777344-6.867188 7.625-10.5l-18-24c-12.65625 9.492188-19.625 21.742188-19.625 34.5s6.96875 25.007812 19.625 34.5c4.84375 3.632812 7.625 7.460938 7.625 10.5s-2.78125 6.867188-7.625 10.5zm0 0"/><path d="m81.066406 488 18 24c12.652344-9.492188 19.625-21.742188 19.625-34.5s-6.972656-25.007812-19.625-34.5c-4.847656-3.632812-7.625-7.460938-7.625-10.5s2.777344-6.867188 7.625-10.5l-18-24c-12.65625 9.492188-19.625 21.742188-19.625 34.5s6.96875 25.007812 19.625 34.5c4.84375 3.632812 7.625 7.460938 7.625 10.5s-2.78125 6.867188-7.625 10.5zm0 0"/></svg>