<svg width="192" height="78" viewBox="0 0 192 78" fill="none" xmlns="http://www.w3.org/2000/svg">
<g filter="url(#filter0_d)">
<path d="M16.4682 65.9822C16.364 67.4121 18.3269 67.8903 19.2606 66.6624L44.1013 33.9942C44.731 33.166 44.3829 32.094 43.4071 31.8563L21.3391 26.481C20.3633 26.2433 19.3111 26.9742 19.2408 27.9386L16.4682 65.9822Z" fill="#FA7268"/>
<path d="M18.8474 66.4155L43.6881 33.7473C44.1079 33.1952 43.8758 32.4805 43.2253 32.3221L21.1572 26.9467C20.5067 26.7883 19.8053 27.2756 19.7584 27.9185L16.9857 65.962C16.9162 66.9153 18.2249 67.2341 18.8474 66.4155Z" stroke="black" stroke-opacity="0.37"/>
</g>
<g filter="url(#filter1_d)">
<path d="M35.7209 17.3308C35.7209 25.8516 33.2221 32.7591 30.1395 32.7591C27.057 32.7591 24.5581 25.8516 24.5581 17.3308C24.5581 8.80993 27.057 1.90244 30.1395 1.90244C33.2221 1.90244 35.7209 8.80993 35.7209 17.3308Z" fill="#76CA8F"/>
<path d="M35.2209 17.3308C35.2209 21.5488 34.6016 25.3457 33.616 28.0701C33.1224 29.4345 32.5465 30.5033 31.9321 31.2216C31.3161 31.9418 30.7086 32.2591 30.1395 32.2591C29.5705 32.2591 28.9629 31.9418 28.347 31.2216C27.7326 30.5033 27.1566 29.4345 26.6631 28.0701C25.6775 25.3457 25.0581 21.5488 25.0581 17.3308C25.0581 13.1127 25.6775 9.31585 26.6631 6.59138C27.1566 5.22705 27.7326 4.15821 28.347 3.43986C28.9629 2.71969 29.5705 2.40244 30.1395 2.40244C30.7086 2.40244 31.3161 2.71969 31.9321 3.43986C32.5465 4.15821 33.1224 5.22705 33.616 6.59138C34.6016 9.31585 35.2209 13.1127 35.2209 17.3308Z" stroke="black" stroke-opacity="0.37"/>
</g>
<g filter="url(#filter2_d)">
<path d="M44.697 22.8499C37.603 29.2697 29.9695 33.1763 27.647 31.5755C25.3246 29.9747 29.1927 23.4728 36.2867 17.053C43.3807 10.6332 51.0143 6.7266 53.3367 8.32738C55.6592 9.92816 51.791 16.4301 44.697 22.8499Z" fill="#76CA8F"/>
<path d="M44.2853 22.5662C40.7636 25.7533 37.1215 28.3034 34.0926 29.8534C32.575 30.6301 31.2391 31.1413 30.1675 31.3656C29.0769 31.594 28.3955 31.5004 28.0177 31.24C27.64 30.9797 27.4304 30.4591 27.5693 29.5748C27.7058 28.7059 28.1664 27.5913 28.9354 26.2987C30.4702 23.7189 33.1766 20.5238 36.6984 17.3367C40.2202 14.1497 43.8623 11.5996 46.8911 10.0495C48.4087 9.27285 49.7446 8.76165 50.8162 8.53727C51.9069 8.3089 52.5883 8.40253 52.966 8.66288C53.3437 8.92322 53.5534 9.44377 53.4144 10.3281C53.2779 11.197 52.8174 12.3116 52.0483 13.6042C50.5136 16.184 47.8071 19.3791 44.2853 22.5662Z" stroke="black" stroke-opacity="0.37"/>
</g>
<g filter="url(#filter3_d)">
<path d="M49.261 29.0765C39.634 32.923 30.7018 34.2801 29.3102 32.1078C27.9187 29.9354 34.5949 25.0562 44.2219 21.2097C53.8489 17.3633 62.7811 16.0061 64.1726 18.1785C65.5642 20.3508 58.888 25.23 49.261 29.0765Z" fill="#76CA8F"/>
<path d="M48.9913 28.6555C44.2042 30.5682 39.6051 31.8553 36.0477 32.3958C34.2649 32.6667 32.7735 32.7453 31.6638 32.6346C30.5116 32.5195 29.9676 32.2236 29.7746 31.9223C29.5815 31.6209 29.602 31.0995 30.1672 30.2982C30.7117 29.5265 31.6755 28.6242 33.008 27.6503C35.6668 25.7071 39.7045 23.5435 44.4916 21.6308C49.2787 19.7181 53.8778 18.4309 57.4352 17.8904C59.218 17.6195 60.7094 17.5409 61.8191 17.6517C62.9713 17.7667 63.5153 18.0626 63.7083 18.364C63.9014 18.6654 63.8809 19.1868 63.3156 19.988C62.7712 20.7597 61.8074 21.6621 60.4749 22.6359C57.816 24.5791 53.7784 26.7428 48.9913 28.6555Z" stroke="black" stroke-opacity="0.37"/>
</g>
<path d="M55.4804 55.2927V38.0127H66.6164V39.4047H57.1124V45.6447H65.7524V47.0367H57.1124V55.2927H55.4804ZM75.8723 55.6287C75.0723 55.6127 74.3203 55.4687 73.6163 55.1967C72.9283 54.9247 72.3203 54.5167 71.7923 53.9727C71.2803 53.4287 70.8723 52.7487 70.5683 51.9327C70.2643 51.1167 70.1123 50.1647 70.1123 49.0767C70.1123 48.1647 70.2323 47.3167 70.4723 46.5327C70.7123 45.7327 71.0723 45.0367 71.5523 44.4447C72.0323 43.8527 72.6323 43.3887 73.3523 43.0527C74.0723 42.7007 74.9123 42.5247 75.8723 42.5247C76.8483 42.5247 77.6963 42.7007 78.4163 43.0527C79.1363 43.3887 79.7363 43.8527 80.2163 44.4447C80.6963 45.0207 81.0483 45.7087 81.2723 46.5087C81.5123 47.3087 81.6323 48.1647 81.6323 49.0767C81.6323 50.0687 81.4963 50.9647 81.2243 51.7647C80.9523 52.5647 80.5603 53.2527 80.0483 53.8287C79.5523 54.4047 78.9443 54.8527 78.2243 55.1727C77.5203 55.4767 76.7363 55.6287 75.8723 55.6287ZM80.0963 49.0767C80.0963 48.3407 80.0163 47.6527 79.8563 47.0127C79.6963 46.3727 79.4483 45.8207 79.1123 45.3567C78.7763 44.8767 78.3443 44.5007 77.8163 44.2287C77.2883 43.9567 76.6403 43.8207 75.8723 43.8207C75.1203 43.8207 74.4723 43.9727 73.9283 44.2767C73.4003 44.5647 72.9683 44.9567 72.6323 45.4527C72.2963 45.9327 72.0483 46.4927 71.8883 47.1327C71.7283 47.7567 71.6483 48.4047 71.6483 49.0767C71.6483 49.8447 71.7363 50.5567 71.9123 51.2127C72.1043 51.8527 72.3763 52.4047 72.7283 52.8687C73.0803 53.3327 73.5203 53.6927 74.0483 53.9487C74.5763 54.2047 75.1843 54.3327 75.8723 54.3327C76.6243 54.3327 77.2643 54.1887 77.7923 53.9007C78.3363 53.5967 78.7763 53.1967 79.1123 52.7007C79.4483 52.2047 79.6963 51.6447 79.8563 51.0207C80.0163 50.3967 80.0963 49.7487 80.0963 49.0767ZM91.3683 55.6287C90.5683 55.6127 89.8163 55.4687 89.1123 55.1967C88.4243 54.9247 87.8163 54.5167 87.2883 53.9727C86.7763 53.4287 86.3683 52.7487 86.0643 51.9327C85.7603 51.1167 85.6083 50.1647 85.6083 49.0767C85.6083 48.1647 85.7283 47.3167 85.9683 46.5327C86.2083 45.7327 86.5683 45.0367 87.0483 44.4447C87.5283 43.8527 88.1283 43.3887 88.8483 43.0527C89.5683 42.7007 90.4083 42.5247 91.3683 42.5247C92.3443 42.5247 93.1923 42.7007 93.9123 43.0527C94.6323 43.3887 95.2323 43.8527 95.7123 44.4447C96.1923 45.0207 96.5443 45.7087 96.7683 46.5087C97.0083 47.3087 97.1283 48.1647 97.1283 49.0767C97.1283 50.0687 96.9923 50.9647 96.7203 51.7647C96.4483 52.5647 96.0563 53.2527 95.5443 53.8287C95.0483 54.4047 94.4403 54.8527 93.7203 55.1727C93.0163 55.4767 92.2323 55.6287 91.3683 55.6287ZM95.5923 49.0767C95.5923 48.3407 95.5123 47.6527 95.3523 47.0127C95.1923 46.3727 94.9443 45.8207 94.6083 45.3567C94.2723 44.8767 93.8403 44.5007 93.3123 44.2287C92.7843 43.9567 92.1363 43.8207 91.3683 43.8207C90.6163 43.8207 89.9683 43.9727 89.4243 44.2767C88.8963 44.5647 88.4643 44.9567 88.1283 45.4527C87.7923 45.9327 87.5443 46.4927 87.3843 47.1327C87.2243 47.7567 87.1443 48.4047 87.1443 49.0767C87.1443 49.8447 87.2323 50.5567 87.4083 51.2127C87.6003 51.8527 87.8723 52.4047 88.2243 52.8687C88.5763 53.3327 89.0163 53.6927 89.5443 53.9487C90.0723 54.2047 90.6803 54.3327 91.3683 54.3327C92.1203 54.3327 92.7603 54.1887 93.2883 53.9007C93.8323 53.5967 94.2723 53.1967 94.6083 52.7007C94.9443 52.2047 95.1923 51.6447 95.3523 51.0207C95.5123 50.3967 95.5923 49.7487 95.5923 49.0767ZM111.52 49.0287C111.52 48.3247 111.424 47.6607 111.232 47.0367C111.04 46.3967 110.76 45.8447 110.392 45.3807C110.04 44.9007 109.6 44.5247 109.072 44.2527C108.56 43.9647 107.976 43.8207 107.32 43.8207C106.568 43.8207 105.92 43.9727 105.376 44.2767C104.832 44.5647 104.384 44.9647 104.032 45.4767C103.68 45.9887 103.424 46.5887 103.264 47.2767C103.104 47.9487 103.04 48.6767 103.072 49.4607C103.072 50.2447 103.176 50.9407 103.384 51.5487C103.608 52.1407 103.912 52.6447 104.296 53.0607C104.68 53.4767 105.128 53.7967 105.64 54.0207C106.152 54.2287 106.712 54.3327 107.32 54.3327C107.992 54.3327 108.592 54.1967 109.12 53.9247C109.648 53.6527 110.088 53.2847 110.44 52.8207C110.792 52.3407 111.056 51.7807 111.232 51.1407C111.424 50.4847 111.52 49.7807 111.52 49.0287ZM111.52 38.0127H112.96V55.2927H111.52V53.1087H111.472C111.264 53.5247 110.992 53.8927 110.656 54.2127C110.336 54.5167 109.976 54.7727 109.576 54.9807C109.192 55.1887 108.792 55.3487 108.376 55.4607C107.96 55.5727 107.552 55.6287 107.152 55.6287C106.144 55.6287 105.288 55.4607 104.584 55.1247C103.88 54.7887 103.296 54.3327 102.832 53.7567C102.384 53.1647 102.056 52.4687 101.848 51.6687C101.64 50.8687 101.536 50.0127 101.536 49.1007C101.536 48.2367 101.648 47.4047 101.872 46.6047C102.096 45.8047 102.432 45.1087 102.88 44.5167C103.344 43.9087 103.92 43.4287 104.608 43.0767C105.312 42.7087 106.136 42.5247 107.08 42.5247C107.96 42.5247 108.8 42.7247 109.6 43.1247C110.416 43.5087 111.056 44.0847 111.52 44.8527V38.0127ZM119.64 50.1327C119.704 50.9007 119.872 51.5567 120.144 52.1007C120.432 52.6287 120.792 53.0607 121.224 53.3967C121.672 53.7327 122.184 53.9807 122.76 54.1407C123.336 54.2847 123.952 54.3567 124.608 54.3567C125.376 54.3567 126.04 54.2607 126.6 54.0687C127.16 53.8767 127.616 53.6207 127.968 53.3007C128.32 52.9647 128.576 52.5807 128.736 52.1487C128.912 51.7167 129 51.2607 129 50.7807C129 50.1087 128.848 49.5647 128.544 49.1487C128.24 48.7327 127.84 48.3967 127.344 48.1407C126.864 47.8687 126.304 47.6527 125.664 47.4927C125.04 47.3327 124.392 47.1807 123.72 47.0367C123.064 46.8767 122.416 46.6927 121.776 46.4847C121.152 46.2767 120.592 45.9967 120.096 45.6447C119.616 45.2927 119.224 44.8447 118.92 44.3007C118.616 43.7407 118.464 43.0367 118.464 42.1887C118.464 41.5967 118.584 41.0207 118.824 40.4607C119.08 39.9007 119.448 39.4047 119.928 38.9727C120.424 38.5407 121.04 38.1967 121.776 37.9407C122.512 37.6847 123.36 37.5567 124.32 37.5567C125.296 37.5567 126.144 37.6927 126.864 37.9647C127.6 38.2367 128.208 38.6127 128.688 39.0927C129.168 39.5567 129.528 40.1007 129.768 40.7247C130.008 41.3487 130.128 42.0127 130.128 42.7167H128.568C128.568 42.0607 128.448 41.4927 128.208 41.0127C127.984 40.5327 127.672 40.1407 127.272 39.8367C126.872 39.5327 126.416 39.3087 125.904 39.1647C125.392 39.0207 124.864 38.9487 124.32 38.9487C123.488 38.9487 122.784 39.0687 122.208 39.3087C121.648 39.5327 121.2 39.8287 120.864 40.1967C120.528 40.5647 120.296 40.9727 120.168 41.4207C120.04 41.8687 120.016 42.3167 120.096 42.7647C120.192 43.3247 120.416 43.7727 120.768 44.1087C121.12 44.4447 121.552 44.7247 122.064 44.9487C122.576 45.1567 123.136 45.3327 123.744 45.4767C124.368 45.6047 125 45.7487 125.64 45.9087C126.28 46.0527 126.896 46.2287 127.488 46.4367C128.096 46.6447 128.632 46.9247 129.096 47.2767C129.56 47.6287 129.928 48.0847 130.2 48.6447C130.488 49.1887 130.632 49.8767 130.632 50.7087C130.632 52.3087 130.08 53.5487 128.976 54.4287C127.872 55.3087 126.32 55.7487 124.32 55.7487C123.424 55.7487 122.592 55.6287 121.824 55.3887C121.056 55.1647 120.392 54.8207 119.832 54.3567C119.272 53.8767 118.832 53.2927 118.512 52.6047C118.208 51.9007 118.056 51.0767 118.056 50.1327H119.64ZM143.72 48.7647C143.112 49.0207 142.496 49.1887 141.872 49.2687C141.248 49.3487 140.624 49.4127 140 49.4607C138.896 49.5407 138.032 49.7887 137.408 50.2047C136.8 50.6207 136.496 51.2527 136.496 52.1007C136.496 52.4847 136.568 52.8207 136.712 53.1087C136.872 53.3807 137.072 53.6127 137.312 53.8047C137.568 53.9807 137.856 54.1167 138.176 54.2127C138.512 54.2927 138.848 54.3327 139.184 54.3327C139.76 54.3327 140.32 54.2607 140.864 54.1167C141.408 53.9727 141.888 53.7567 142.304 53.4687C142.736 53.1647 143.08 52.7887 143.336 52.3407C143.592 51.8767 143.72 51.3327 143.72 50.7087V48.7647ZM141.296 48.0447C141.568 48.0127 141.888 47.9647 142.256 47.9007C142.64 47.8367 142.952 47.7487 143.192 47.6367C143.432 47.5247 143.576 47.3407 143.624 47.0847C143.688 46.8127 143.72 46.5647 143.72 46.3407C143.72 45.6047 143.48 45.0047 143 44.5407C142.536 44.0607 141.744 43.8207 140.624 43.8207C140.128 43.8207 139.672 43.8687 139.256 43.9647C138.84 44.0447 138.472 44.1967 138.152 44.4207C137.848 44.6287 137.592 44.9167 137.384 45.2847C137.192 45.6367 137.064 46.0847 137 46.6287H135.536C135.584 45.8927 135.752 45.2687 136.04 44.7567C136.328 44.2287 136.696 43.8047 137.144 43.4847C137.608 43.1487 138.136 42.9087 138.728 42.7647C139.336 42.6047 139.976 42.5247 140.648 42.5247C141.272 42.5247 141.856 42.5967 142.4 42.7407C142.96 42.8687 143.44 43.0847 143.84 43.3887C144.256 43.6767 144.576 44.0687 144.8 44.5647C145.04 45.0607 145.16 45.6687 145.16 46.3887V53.1567C145.16 53.7167 145.256 54.0767 145.448 54.2367C145.656 54.3807 146.064 54.3407 146.672 54.1167V55.2447C146.56 55.2767 146.392 55.3247 146.168 55.3887C145.96 55.4527 145.752 55.4847 145.544 55.4847C145.32 55.4847 145.104 55.4607 144.896 55.4127C144.656 55.3807 144.464 55.3087 144.32 55.1967C144.176 55.0687 144.056 54.9247 143.96 54.7647C143.88 54.5887 143.824 54.4047 143.792 54.2127C143.76 54.0047 143.744 53.7887 143.744 53.5647C143.136 54.2367 142.44 54.7487 141.656 55.1007C140.872 55.4527 140.024 55.6287 139.112 55.6287C138.568 55.6287 138.04 55.5567 137.528 55.4127C137.032 55.2687 136.592 55.0447 136.208 54.7407C135.824 54.4367 135.52 54.0687 135.296 53.6367C135.072 53.1887 134.96 52.6607 134.96 52.0527C134.96 49.9407 136.408 48.6927 139.304 48.3087L141.296 48.0447ZM149.76 42.8607H151.32L155.352 53.5167L159.384 42.8607H160.944L156.12 55.2927H154.512L149.76 42.8607ZM174.24 48.2127C174.24 47.6047 174.152 47.0367 173.976 46.5087C173.816 45.9647 173.568 45.5007 173.232 45.1167C172.912 44.7167 172.504 44.4047 172.008 44.1807C171.512 43.9407 170.944 43.8207 170.304 43.8207C169.664 43.8207 169.096 43.9407 168.6 44.1807C168.12 44.4207 167.704 44.7407 167.352 45.1407C167.016 45.5407 166.744 46.0047 166.536 46.5327C166.328 47.0607 166.192 47.6207 166.128 48.2127H174.24ZM166.128 49.4127C166.128 50.0847 166.216 50.7247 166.392 51.3327C166.568 51.9247 166.824 52.4447 167.16 52.8927C167.512 53.3247 167.952 53.6767 168.48 53.9487C169.008 54.2047 169.616 54.3327 170.304 54.3327C171.248 54.3327 172.056 54.0847 172.728 53.5887C173.4 53.0927 173.848 52.3887 174.072 51.4767H175.68C175.504 52.0687 175.272 52.6207 174.984 53.1327C174.696 53.6287 174.336 54.0687 173.904 54.4527C173.472 54.8207 172.96 55.1087 172.368 55.3167C171.776 55.5247 171.088 55.6287 170.304 55.6287C169.312 55.6287 168.456 55.4607 167.736 55.1247C167.016 54.7887 166.424 54.3327 165.96 53.7567C165.496 53.1647 165.152 52.4767 164.928 51.6927C164.704 50.8927 164.592 50.0367 164.592 49.1247C164.592 48.2127 164.72 47.3567 164.976 46.5567C165.248 45.7567 165.624 45.0607 166.104 44.4687C166.6 43.8607 167.2 43.3887 167.904 43.0527C168.608 42.7007 169.408 42.5247 170.304 42.5247C172.016 42.5247 173.36 43.1167 174.336 44.3007C175.312 45.4687 175.792 47.1727 175.776 49.4127H166.128ZM182.248 55.2927H180.808V42.8607H182.248V45.1887H182.296C182.696 44.1967 183.208 43.5087 183.832 43.1247C184.472 42.7247 185.312 42.5247 186.352 42.5247V44.0847C185.536 44.0687 184.864 44.1967 184.336 44.4687C183.808 44.7407 183.384 45.1087 183.064 45.5727C182.76 46.0367 182.544 46.5887 182.416 47.2287C182.304 47.8527 182.248 48.5087 182.248 49.1967V55.2927Z" fill="black"/>
<path d="M55.4804 55.2927H54.4804V56.2927H55.4804V55.2927ZM55.4804 38.0127V37.0127H54.4804V38.0127H55.4804ZM66.6164 38.0127H67.6164V37.0127H66.6164V38.0127ZM66.6164 39.4047V40.4047H67.6164V39.4047H66.6164ZM57.1124 39.4047V38.4047H56.1124V39.4047H57.1124ZM57.1124 45.6447H56.1124V46.6447H57.1124V45.6447ZM65.7524 45.6447H66.7524V44.6447H65.7524V45.6447ZM65.7524 47.0367V48.0367H66.7524V47.0367H65.7524ZM57.1124 47.0367V46.0367H56.1124V47.0367H57.1124ZM57.1124 55.2927V56.2927H58.1124V55.2927H57.1124ZM56.4804 55.2927V38.0127H54.4804V55.2927H56.4804ZM55.4804 39.0127H66.6164V37.0127H55.4804V39.0127ZM65.6164 38.0127V39.4047H67.6164V38.0127H65.6164ZM66.6164 38.4047H57.1124V40.4047H66.6164V38.4047ZM56.1124 39.4047V45.6447H58.1124V39.4047H56.1124ZM57.1124 46.6447H65.7524V44.6447H57.1124V46.6447ZM64.7524 45.6447V47.0367H66.7524V45.6447H64.7524ZM65.7524 46.0367H57.1124V48.0367H65.7524V46.0367ZM56.1124 47.0367V55.2927H58.1124V47.0367H56.1124ZM57.1124 54.2927H55.4804V56.2927H57.1124V54.2927ZM75.8723 55.6287L75.8523 56.6285L75.8623 56.6287H75.8723V55.6287ZM73.6163 55.1967L73.2486 56.1267L73.2559 56.1295L73.6163 55.1967ZM71.7923 53.9727L71.0641 54.658L71.0694 54.6636L71.0747 54.6692L71.7923 53.9727ZM70.5683 51.9327L69.6312 52.2818L69.6312 52.2818L70.5683 51.9327ZM70.4723 46.5327L71.4285 46.8254L71.4301 46.82L70.4723 46.5327ZM73.3523 43.0527L73.7752 43.9589L73.7834 43.955L73.7915 43.9511L73.3523 43.0527ZM78.4163 43.0527L77.9771 43.9511L77.9852 43.955L77.9934 43.9589L78.4163 43.0527ZM80.2163 44.4447L79.4395 45.0745L79.4481 45.0849L80.2163 44.4447ZM81.2723 46.5087L80.3094 46.7783L80.3118 46.7872L80.3145 46.796L81.2723 46.5087ZM81.2243 51.7647L82.1711 52.0866L82.1711 52.0866L81.2243 51.7647ZM80.0483 53.8287L79.3009 53.1643L79.2957 53.1702L79.2905 53.1762L80.0483 53.8287ZM78.2243 55.1727L78.6208 56.0908L78.6305 56.0865L78.2243 55.1727ZM79.8563 47.0127L80.8265 46.7701L80.8265 46.7701L79.8563 47.0127ZM79.1123 45.3567L78.2931 45.9301L78.2977 45.9367L78.3024 45.9432L79.1123 45.3567ZM77.8163 44.2287L78.2743 43.3397L78.2743 43.3397L77.8163 44.2287ZM73.9283 44.2767L74.4072 45.1546L74.4161 45.1496L73.9283 44.2767ZM72.6323 45.4527L73.4515 46.0261L73.4559 46.0199L73.4602 46.0135L72.6323 45.4527ZM71.8883 47.1327L72.857 47.3811L72.8585 47.3752L71.8883 47.1327ZM71.9123 51.2127L70.9465 51.4718L70.9503 51.486L70.9545 51.5L71.9123 51.2127ZM72.7283 52.8687L71.9316 53.4731L71.9316 53.4731L72.7283 52.8687ZM74.0483 53.9487L73.612 54.8485L73.612 54.8485L74.0483 53.9487ZM77.7923 53.9007L78.2712 54.7786L78.2801 54.7736L77.7923 53.9007ZM79.1123 52.7007L79.9402 53.2615L79.9402 53.2615L79.1123 52.7007ZM79.8563 51.0207L80.825 51.2691L80.825 51.2691L79.8563 51.0207ZM75.8923 54.6289C75.2017 54.6151 74.5656 54.4914 73.9767 54.2639L73.2559 56.1295C74.075 56.4459 74.9429 56.6103 75.8523 56.6285L75.8923 54.6289ZM73.984 54.2667C73.4312 54.0482 72.9416 53.721 72.5099 53.2762L71.0747 54.6692C71.699 55.3123 72.4255 55.8012 73.2487 56.1266L73.984 54.2667ZM72.5205 53.2873C72.1137 52.8551 71.7705 52.2951 71.5054 51.5836L69.6312 52.2818C69.9741 53.2022 70.4469 54.0023 71.0641 54.658L72.5205 53.2873ZM71.5054 51.5836C71.2519 50.9032 71.1123 50.0741 71.1123 49.0767H69.1123C69.1123 50.2553 69.2767 51.3301 69.6312 52.2818L71.5054 51.5836ZM71.1123 49.0767C71.1123 48.2529 71.2206 47.5046 71.4285 46.8254L69.5161 46.24C69.244 47.1288 69.1123 48.0765 69.1123 49.0767H71.1123ZM71.4301 46.82C71.6363 46.1329 71.9387 45.5559 72.3291 45.0745L70.7756 43.8149C70.2059 44.5175 69.7883 45.3325 69.5145 46.2453L71.4301 46.82ZM72.3291 45.0745C72.7095 44.6053 73.1866 44.2336 73.7752 43.9589L72.9294 42.1465C72.0781 42.5438 71.3551 43.1001 70.7756 43.8149L72.3291 45.0745ZM73.7915 43.9511C74.3503 43.6779 75.0348 43.5247 75.8723 43.5247V41.5247C74.7899 41.5247 73.7943 41.7235 72.9131 42.1543L73.7915 43.9511ZM75.8723 43.5247C76.7287 43.5247 77.4204 43.6789 77.9771 43.9511L78.8555 42.1543C77.9722 41.7224 76.9679 41.5247 75.8723 41.5247V43.5247ZM77.9934 43.9589C78.5821 44.2336 79.0591 44.6053 79.4396 45.0745L80.9931 43.8149C80.4135 43.1001 79.6906 42.5438 78.8392 42.1465L77.9934 43.9589ZM79.4481 45.0849C79.8284 45.5413 80.1193 46.0994 80.3094 46.7783L82.2353 46.239C81.9774 45.3179 81.5642 44.5001 80.9845 43.8045L79.4481 45.0849ZM80.3145 46.796C80.5241 47.4947 80.6323 48.2531 80.6323 49.0767H82.6323C82.6323 48.0762 82.5005 47.1227 82.2301 46.2213L80.3145 46.796ZM80.6323 49.0767C80.6323 49.9778 80.5088 50.7627 80.2775 51.4428L82.1711 52.0866C82.4839 51.1667 82.6323 50.1596 82.6323 49.0767H80.6323ZM80.2775 51.4428C80.0443 52.1287 79.7161 52.6973 79.3009 53.1643L80.7957 54.493C81.4046 53.8081 81.8603 53.0006 82.1711 52.0866L80.2775 51.4428ZM79.2905 53.1762C78.8946 53.636 78.4082 53.9966 77.8182 54.2589L78.6305 56.0865C79.4805 55.7087 80.2101 55.1734 80.8061 54.4812L79.2905 53.1762ZM77.8279 54.2546C77.264 54.4981 76.6172 54.6287 75.8723 54.6287V56.6287C76.8554 56.6287 77.7766 56.4552 78.6208 56.0907L77.8279 54.2546ZM81.0963 49.0767C81.0963 48.2682 81.0084 47.498 80.8265 46.7701L78.8862 47.2552C79.0242 47.8074 79.0963 48.4132 79.0963 49.0767H81.0963ZM80.8265 46.7701C80.6401 46.0249 80.3436 45.352 79.9223 44.7702L78.3024 45.9432C78.5531 46.2894 78.7525 46.7205 78.8862 47.2552L80.8265 46.7701ZM79.9315 44.7832C79.5012 44.1684 78.9444 43.6849 78.2743 43.3397L77.3584 45.1177C77.7442 45.3164 78.0514 45.5849 78.2931 45.9301L79.9315 44.7832ZM78.2743 43.3397C77.5693 42.9765 76.7544 42.8207 75.8723 42.8207V44.8207C76.5262 44.8207 77.0073 44.9368 77.3584 45.1177L78.2743 43.3397ZM75.8723 42.8207C74.9847 42.8207 74.1615 43.0008 73.4405 43.4037L74.4161 45.1496C74.7831 44.9446 75.2559 44.8207 75.8723 44.8207V42.8207ZM73.4495 43.3988C72.7821 43.7628 72.2302 44.2633 71.8044 44.8918L73.4602 46.0135C73.7064 45.6501 74.0186 45.3665 74.4072 45.1546L73.4495 43.3988ZM71.8131 44.8792C71.3987 45.4712 71.1041 46.1464 70.9182 46.8901L72.8585 47.3752C72.9925 46.839 73.1939 46.3942 73.4515 46.0261L71.8131 44.8792ZM70.9196 46.8843C70.738 47.5929 70.6483 48.3245 70.6483 49.0767H72.6483C72.6483 48.4848 72.7187 47.9205 72.857 47.3811L70.9196 46.8843ZM70.6483 49.0767C70.6483 49.921 70.7451 50.7211 70.9465 51.4718L72.8782 50.9536C72.7276 50.3922 72.6483 49.7684 72.6483 49.0767H70.6483ZM70.9545 51.5C71.1758 52.2379 71.4976 52.9009 71.9316 53.4731L73.525 52.2643C73.255 51.9084 73.0328 51.4675 72.8701 50.9253L70.9545 51.5ZM71.9316 53.4731C72.3796 54.0635 72.9434 54.5243 73.612 54.8485L74.4846 53.0489C74.0972 52.861 73.7811 52.6018 73.525 52.2643L71.9316 53.4731ZM73.612 54.8485C74.2976 55.1809 75.0591 55.3327 75.8723 55.3327V53.3327C75.3095 53.3327 74.8551 53.2285 74.4846 53.0489L73.612 54.8485ZM75.8723 55.3327C76.7504 55.3327 77.5639 55.1643 78.2712 54.7786L77.3135 53.0228C76.9647 53.213 76.4982 53.3327 75.8723 53.3327V55.3327ZM78.2801 54.7736C78.9546 54.3967 79.5132 53.8919 79.9402 53.2615L78.2844 52.1398C78.0394 52.5014 77.718 52.7967 77.3045 53.0277L78.2801 54.7736ZM79.9402 53.2615C80.3455 52.6633 80.6386 51.9961 80.825 51.2691L78.8877 50.7723C78.7541 51.2932 78.5511 51.7461 78.2844 52.1398L79.9402 53.2615ZM80.825 51.2691C81.0067 50.5605 81.0963 49.8288 81.0963 49.0767H79.0963C79.0963 49.6685 79.026 50.2329 78.8877 50.7723L80.825 51.2691ZM91.3683 55.6287L91.3483 56.6285L91.3583 56.6287H91.3683V55.6287ZM89.1123 55.1967L88.7446 56.1267L88.7519 56.1295L89.1123 55.1967ZM87.2883 53.9727L86.5601 54.658L86.5653 54.6636L86.5707 54.6692L87.2883 53.9727ZM86.0643 51.9327L85.1272 52.2818L85.1272 52.2818L86.0643 51.9327ZM85.9683 46.5327L86.9245 46.8254L86.9261 46.82L85.9683 46.5327ZM88.8483 43.0527L89.2711 43.9589L89.2793 43.955L89.2875 43.9511L88.8483 43.0527ZM93.9123 43.0527L93.473 43.9511L93.4812 43.955L93.4894 43.9589L93.9123 43.0527ZM95.7123 44.4447L94.9354 45.0745L94.944 45.0849L95.7123 44.4447ZM96.7683 46.5087L95.8053 46.7783L95.8078 46.7872L95.8104 46.796L96.7683 46.5087ZM96.7203 51.7647L97.667 52.0866L97.667 52.0866L96.7203 51.7647ZM95.5443 53.8287L94.7968 53.1643L94.7916 53.1702L94.7865 53.1762L95.5443 53.8287ZM93.7203 55.1727L94.1167 56.0908L94.1264 56.0865L93.7203 55.1727ZM95.3523 47.0127L96.3224 46.7701L96.3224 46.7701L95.3523 47.0127ZM94.6083 45.3567L93.789 45.9301L93.7936 45.9367L93.7983 45.9432L94.6083 45.3567ZM93.3123 44.2287L93.7702 43.3397L93.7702 43.3397L93.3123 44.2287ZM89.4243 44.2767L89.9031 45.1546L89.9121 45.1496L89.4243 44.2767ZM88.1283 45.4527L88.9475 46.0261L88.9519 46.0199L88.9562 46.0135L88.1283 45.4527ZM87.3843 47.1327L88.3529 47.3811L88.3544 47.3752L87.3843 47.1327ZM87.4083 51.2127L86.4424 51.4718L86.4462 51.486L86.4504 51.5L87.4083 51.2127ZM88.2243 52.8687L87.4276 53.4731L87.4276 53.4731L88.2243 52.8687ZM89.5443 53.9487L89.108 54.8485L89.108 54.8485L89.5443 53.9487ZM93.2883 53.9007L93.7671 54.7786L93.7761 54.7736L93.2883 53.9007ZM94.6083 52.7007L95.4362 53.2615L95.4362 53.2615L94.6083 52.7007ZM95.3523 51.0207L96.3209 51.2691L96.3209 51.2691L95.3523 51.0207ZM91.3882 54.6289C90.6977 54.6151 90.0615 54.4914 89.4727 54.2639L88.7519 56.1295C89.571 56.4459 90.4388 56.6103 91.3483 56.6285L91.3882 54.6289ZM89.4799 54.2667C88.9271 54.0482 88.4376 53.721 88.0058 53.2762L86.5707 54.6692C87.1949 55.3123 87.9214 55.8012 88.7446 56.1266L89.4799 54.2667ZM88.0165 53.2873C87.6096 52.8551 87.2664 52.2951 87.0013 51.5836L85.1272 52.2818C85.4701 53.2022 85.9429 54.0023 86.5601 54.658L88.0165 53.2873ZM87.0013 51.5836C86.7479 50.9032 86.6083 50.0741 86.6083 49.0767H84.6083C84.6083 50.2553 84.7726 51.3301 85.1272 52.2818L87.0013 51.5836ZM86.6083 49.0767C86.6083 48.2529 86.7165 47.5046 86.9245 46.8254L85.0121 46.24C84.74 47.1288 84.6083 48.0765 84.6083 49.0767H86.6083ZM86.9261 46.82C87.1322 46.1329 87.4347 45.5559 87.825 45.0745L86.2715 43.8149C85.7018 44.5175 85.2843 45.3325 85.0104 46.2453L86.9261 46.82ZM87.825 45.0745C88.2054 44.6053 88.6825 44.2336 89.2711 43.9589L88.4254 42.1465C87.574 42.5438 86.8511 43.1001 86.2715 43.8149L87.825 45.0745ZM89.2875 43.9511C89.8463 43.6779 90.5307 43.5247 91.3683 43.5247V41.5247C90.2858 41.5247 89.2903 41.7235 88.409 42.1543L89.2875 43.9511ZM91.3683 43.5247C92.2246 43.5247 92.9164 43.6789 93.473 43.9511L94.3515 42.1543C93.4681 41.7224 92.4639 41.5247 91.3683 41.5247V43.5247ZM93.4894 43.9589C94.078 44.2336 94.5551 44.6053 94.9355 45.0745L96.489 43.8149C95.9094 43.1001 95.1865 42.5438 94.3351 42.1465L93.4894 43.9589ZM94.944 45.0849C95.3244 45.5413 95.6152 46.0994 95.8053 46.7783L97.7312 46.239C97.4733 45.3179 97.0601 44.5001 96.4805 43.8045L94.944 45.0849ZM95.8104 46.796C96.02 47.4947 96.1283 48.2531 96.1283 49.0767H98.1283C98.1283 48.0762 97.9965 47.1227 97.7261 46.2213L95.8104 46.796ZM96.1283 49.0767C96.1283 49.9778 96.0047 50.7627 95.7735 51.4428L97.667 52.0866C97.9798 51.1667 98.1283 50.1596 98.1283 49.0767H96.1283ZM95.7735 51.4428C95.5403 52.1287 95.212 52.6973 94.7968 53.1643L96.2917 54.493C96.9005 53.8081 97.3562 53.0006 97.667 52.0866L95.7735 51.4428ZM94.7865 53.1762C94.3905 53.636 93.9041 53.9966 93.3141 54.2589L94.1264 56.0865C94.9764 55.7087 95.706 55.1734 96.302 54.4812L94.7865 53.1762ZM93.3238 54.2546C92.7599 54.4981 92.1132 54.6287 91.3683 54.6287V56.6287C92.3513 56.6287 93.2726 56.4552 94.1167 56.0907L93.3238 54.2546ZM96.5923 49.0767C96.5923 48.2682 96.5044 47.498 96.3224 46.7701L94.3821 47.2552C94.5201 47.8074 94.5923 48.4132 94.5923 49.0767H96.5923ZM96.3224 46.7701C96.1361 46.0249 95.8395 45.352 95.4182 44.7702L93.7983 45.9432C94.049 46.2894 94.2484 46.7205 94.3821 47.2552L96.3224 46.7701ZM95.4275 44.7832C94.9971 44.1684 94.4404 43.6849 93.7702 43.3397L92.8543 45.1177C93.2401 45.3164 93.5474 45.5849 93.789 45.9301L95.4275 44.7832ZM93.7702 43.3397C93.0652 42.9765 92.2504 42.8207 91.3683 42.8207V44.8207C92.0221 44.8207 92.5033 44.9368 92.8543 45.1177L93.7702 43.3397ZM91.3683 42.8207C90.4806 42.8207 89.6575 43.0008 88.9364 43.4037L89.9121 45.1496C90.279 44.9446 90.7519 44.8207 91.3683 44.8207V42.8207ZM88.9454 43.3988C88.278 43.7628 87.7261 44.2633 87.3003 44.8918L88.9562 46.0135C89.2024 45.6501 89.5145 45.3665 89.9031 45.1546L88.9454 43.3988ZM87.309 44.8792C86.8946 45.4712 86.6001 46.1464 86.4141 46.8901L88.3544 47.3752C88.4885 46.839 88.6899 46.3942 88.9475 46.0261L87.309 44.8792ZM86.4156 46.8843C86.2339 47.5929 86.1443 48.3245 86.1443 49.0767H88.1443C88.1443 48.4848 88.2146 47.9205 88.3529 47.3811L86.4156 46.8843ZM86.1443 49.0767C86.1443 49.921 86.241 50.7211 86.4424 51.4718L88.3741 50.9536C88.2235 50.3922 88.1443 49.7684 88.1443 49.0767H86.1443ZM86.4504 51.5C86.6718 52.2379 86.9935 52.9009 87.4276 53.4731L89.0209 52.2643C88.751 51.9084 88.5287 51.4675 88.3661 50.9253L86.4504 51.5ZM87.4276 53.4731C87.8755 54.0635 88.4394 54.5243 89.108 54.8485L89.9805 53.0489C89.5931 52.861 89.277 52.6018 89.0209 52.2643L87.4276 53.4731ZM89.108 54.8485C89.7935 55.1809 90.5551 55.3327 91.3683 55.3327V53.3327C90.8054 53.3327 90.351 53.2285 89.9805 53.0489L89.108 54.8485ZM91.3683 55.3327C92.2464 55.3327 93.0599 55.1643 93.7671 54.7786L92.8094 53.0228C92.4606 53.213 91.9941 53.3327 91.3683 53.3327V55.3327ZM93.7761 54.7736C94.4506 54.3967 95.0091 53.8919 95.4362 53.2615L93.7803 52.1398C93.5354 52.5014 93.2139 52.7967 92.8004 53.0277L93.7761 54.7736ZM95.4362 53.2615C95.8414 52.6633 96.1345 51.9961 96.3209 51.2691L94.3836 50.7723C94.25 51.2932 94.0471 51.7461 93.7803 52.1398L95.4362 53.2615ZM96.3209 51.2691C96.5026 50.5605 96.5923 49.8288 96.5923 49.0767H94.5923C94.5923 49.6685 94.5219 50.2329 94.3836 50.7723L96.3209 51.2691ZM111.232 47.0367L110.274 47.324L110.276 47.3308L111.232 47.0367ZM110.392 45.3807L109.586 45.972L109.597 45.9873L109.609 46.0021L110.392 45.3807ZM109.072 44.2527L108.582 45.1243L108.598 45.1333L108.614 45.1417L109.072 44.2527ZM105.376 44.2767L105.844 45.1605L105.854 45.1552L105.864 45.1496L105.376 44.2767ZM103.264 47.2767L104.237 47.5083L104.238 47.5032L103.264 47.2767ZM103.072 49.4607H104.072V49.4403L104.071 49.4199L103.072 49.4607ZM103.384 51.5487L102.438 51.8724L102.443 51.8876L102.449 51.9026L103.384 51.5487ZM105.64 54.0207L105.239 54.9368L105.252 54.9422L105.264 54.9471L105.64 54.0207ZM109.12 53.9247L108.662 53.0357L108.662 53.0357L109.12 53.9247ZM110.44 52.8207L111.237 53.4251L111.242 53.4186L111.247 53.412L110.44 52.8207ZM111.232 51.1407L110.272 50.8598L110.27 50.8676L110.268 50.8755L111.232 51.1407ZM111.52 38.0127V37.0127H110.52V38.0127H111.52ZM112.96 38.0127H113.96V37.0127H112.96V38.0127ZM112.96 55.2927V56.2927H113.96V55.2927H112.96ZM111.52 55.2927H110.52V56.2927H111.52V55.2927ZM111.52 53.1087H112.52V52.1087H111.52V53.1087ZM111.472 53.1087V52.1087H110.854L110.578 52.6615L111.472 53.1087ZM110.656 54.2127L111.345 54.9377L111.346 54.9368L110.656 54.2127ZM109.576 54.9807L109.115 54.0935L109.107 54.0974L109.1 54.1014L109.576 54.9807ZM102.832 53.7567L102.035 54.3601L102.044 54.3722L102.053 54.384L102.832 53.7567ZM101.848 51.6687L102.816 51.417L102.816 51.417L101.848 51.6687ZM101.872 46.6047L100.909 46.335L100.909 46.335L101.872 46.6047ZM102.88 44.5167L102.085 43.91L102.083 43.9132L102.88 44.5167ZM104.608 43.0767L105.064 43.967L105.071 43.9629L104.608 43.0767ZM109.6 43.1247L109.153 44.0191L109.164 44.0244L109.174 44.0295L109.6 43.1247ZM111.52 44.8527L110.664 45.3698L112.52 48.4417V44.8527H111.52ZM112.52 49.0287C112.52 48.2328 112.411 47.469 112.188 46.7426L110.276 47.3308C110.437 47.8523 110.52 48.4166 110.52 49.0287H112.52ZM112.19 46.7493C111.966 46.0034 111.632 45.3345 111.176 44.7593L109.609 46.0021C109.888 46.3549 110.114 46.7899 110.274 47.324L112.19 46.7493ZM111.199 44.7893C110.755 44.1848 110.196 43.7068 109.53 43.3637L108.614 45.1417C109.004 45.3426 109.325 45.6166 109.586 45.972L111.199 44.7893ZM109.562 43.3811C108.884 42.9994 108.127 42.8207 107.32 42.8207V44.8207C107.825 44.8207 108.236 44.9299 108.582 45.1243L109.562 43.3811ZM107.32 42.8207C106.433 42.8207 105.609 43.0008 104.888 43.4037L105.864 45.1496C106.231 44.9446 106.704 44.8207 107.32 44.8207V42.8207ZM104.908 43.3929C104.22 43.7571 103.651 44.2665 103.208 44.9101L104.856 46.0432C105.118 45.6628 105.444 45.3723 105.844 45.1605L104.908 43.3929ZM103.208 44.9101C102.776 45.5382 102.475 46.257 102.29 47.0502L104.238 47.5032C104.374 46.9204 104.584 46.4391 104.856 46.0432L103.208 44.9101ZM102.291 47.0451C102.108 47.8174 102.038 48.6381 102.073 49.5015L104.071 49.4199C104.043 48.7153 104.101 48.08 104.237 47.5083L102.291 47.0451ZM102.072 49.4607C102.072 50.3314 102.188 51.1401 102.438 51.8724L104.33 51.225C104.165 50.7412 104.072 50.1579 104.072 49.4607H102.072ZM102.449 51.9026C102.713 52.6004 103.081 53.2182 103.561 53.739L105.031 52.3824C104.744 52.0712 104.503 51.6809 104.319 51.1948L102.449 51.9026ZM103.561 53.739C104.038 54.2551 104.599 54.6567 105.239 54.9368L106.041 53.1045C105.657 52.9366 105.323 52.6982 105.031 52.3824L103.561 53.739ZM105.264 54.9471C105.907 55.2084 106.596 55.3327 107.32 55.3327V53.3327C106.828 53.3327 106.398 53.249 106.017 53.0942L105.264 54.9471ZM107.32 55.3327C108.13 55.3327 108.891 55.1677 109.578 54.8137L108.662 53.0357C108.294 53.2256 107.854 53.3327 107.32 53.3327V55.3327ZM109.578 54.8137C110.236 54.4747 110.793 54.0104 111.237 53.4251L109.643 52.2163C109.384 52.5589 109.06 52.8307 108.662 53.0357L109.578 54.8137ZM111.247 53.412C111.678 52.8232 111.992 52.1498 112.196 51.4058L110.268 50.8755C110.121 51.4115 109.906 51.8582 109.634 52.2293L111.247 53.412ZM112.192 51.4216C112.413 50.6657 112.52 49.8663 112.52 49.0287H110.52C110.52 49.695 110.435 50.3037 110.272 50.8598L112.192 51.4216ZM111.52 39.0127H112.96V37.0127H111.52V39.0127ZM111.96 38.0127V55.2927H113.96V38.0127H111.96ZM112.96 54.2927H111.52V56.2927H112.96V54.2927ZM112.52 55.2927V53.1087H110.52V55.2927H112.52ZM111.52 52.1087H111.472V54.1087H111.52V52.1087ZM110.578 52.6615C110.421 52.9743 110.219 53.2485 109.967 53.4885L111.346 54.9368C111.766 54.5369 112.107 54.0751 112.367 53.5559L110.578 52.6615ZM109.967 53.4877C109.717 53.7259 109.434 53.9277 109.115 54.0935L110.038 55.8679C110.519 55.6177 110.956 55.3075 111.345 54.9377L109.967 53.4877ZM109.1 54.1014C108.783 54.2728 108.456 54.4036 108.116 54.4951L108.636 56.4263C109.128 56.2938 109.601 56.1046 110.052 55.86L109.1 54.1014ZM108.116 54.4951C107.778 54.586 107.458 54.6287 107.152 54.6287V56.6287C107.646 56.6287 108.142 56.5594 108.636 56.4263L108.116 54.4951ZM107.152 54.6287C106.251 54.6287 105.551 54.4781 105.015 54.2222L104.153 56.0272C105.025 56.4433 106.037 56.6287 107.152 56.6287V54.6287ZM105.015 54.2222C104.438 53.9471 103.976 53.5824 103.611 53.1293L102.053 54.384C102.616 55.083 103.322 55.6303 104.153 56.0272L105.015 54.2222ZM103.63 53.1532C103.27 52.6774 102.995 52.1042 102.816 51.417L100.88 51.9203C101.118 52.8332 101.499 53.6519 102.035 54.3601L103.63 53.1532ZM102.816 51.417C102.631 50.7072 102.536 49.9364 102.536 49.1007H100.536C100.536 50.0889 100.649 51.0302 100.88 51.9203L102.816 51.417ZM102.536 49.1007C102.536 48.3242 102.637 47.5831 102.835 46.8743L100.909 46.335C100.66 47.2263 100.536 48.1492 100.536 49.1007H102.536ZM102.835 46.8743C103.029 46.1807 103.314 45.601 103.678 45.1201L102.083 43.9132C101.551 44.6164 101.163 45.4287 100.909 46.335L102.835 46.8743ZM103.675 45.1234C104.048 44.6353 104.507 44.2517 105.064 43.9669L104.153 42.1864C103.333 42.6057 102.641 43.182 102.085 43.91L103.675 45.1234ZM105.071 43.9629C105.608 43.6825 106.267 43.5247 107.08 43.5247V41.5247C106.005 41.5247 105.017 41.7349 104.145 42.1905L105.071 43.9629ZM107.08 43.5247C107.802 43.5247 108.489 43.6874 109.153 44.0191L110.047 42.2303C109.111 41.762 108.118 41.5247 107.08 41.5247V43.5247ZM109.174 44.0295C109.813 44.33 110.303 44.7715 110.664 45.3698L112.376 44.3356C111.81 43.3978 111.019 42.6874 110.026 42.2199L109.174 44.0295ZM112.52 44.8527V38.0127H110.52V44.8527H112.52ZM119.64 50.1327L120.637 50.0496L120.56 49.1327H119.64V50.1327ZM120.144 52.1007L119.25 52.5479L119.258 52.5639L119.266 52.5795L120.144 52.1007ZM121.224 53.3967L120.61 54.186L120.617 54.1914L120.624 54.1967L121.224 53.3967ZM122.76 54.1407L122.492 55.1042L122.505 55.1077L122.518 55.1108L122.76 54.1407ZM126.6 54.0687L126.276 53.1227L126.276 53.1227L126.6 54.0687ZM127.968 53.3007L128.641 54.0406L128.65 54.0324L128.659 54.024L127.968 53.3007ZM128.736 52.1487L127.81 51.7714L127.804 51.7863L127.798 51.8014L128.736 52.1487ZM128.544 49.1487L129.351 48.5587L129.351 48.5587L128.544 49.1487ZM127.344 48.1407L126.851 49.0107L126.868 49.0203L126.885 49.0293L127.344 48.1407ZM125.664 47.4927L125.416 48.4614L125.422 48.4628L125.664 47.4927ZM123.72 47.0367L123.483 48.0082L123.497 48.0115L123.511 48.0145L123.72 47.0367ZM121.776 46.4847L121.46 47.4334L121.467 47.4357L121.776 46.4847ZM120.096 45.6447L119.505 46.4511L119.511 46.4557L119.517 46.4602L120.096 45.6447ZM118.92 44.3007L118.041 44.7778L118.047 44.7885L118.92 44.3007ZM118.824 40.4607L117.915 40.0449L117.91 40.0558L117.905 40.0668L118.824 40.4607ZM119.928 38.9727L119.271 38.2186L119.265 38.2239L119.259 38.2294L119.928 38.9727ZM121.776 37.9407L121.448 36.9962L121.448 36.9962L121.776 37.9407ZM126.864 37.9647L126.511 38.9002L126.517 38.9027L126.864 37.9647ZM128.688 39.0927L127.981 39.7998L127.987 39.8058L127.993 39.8117L128.688 39.0927ZM129.768 40.7247L130.701 40.3657L130.701 40.3657L129.768 40.7247ZM130.128 42.7167V43.7167H131.128V42.7167H130.128ZM128.568 42.7167H127.568V43.7167H128.568V42.7167ZM128.208 41.0127L127.302 41.4356L127.308 41.4478L127.314 41.4599L128.208 41.0127ZM127.272 39.8367L127.877 39.0405L127.877 39.0405L127.272 39.8367ZM125.904 39.1647L125.633 40.1273L125.633 40.1273L125.904 39.1647ZM122.208 39.3087L122.579 40.2372L122.586 40.2345L122.593 40.2318L122.208 39.3087ZM120.168 41.4207L121.13 41.6954L121.13 41.6954L120.168 41.4207ZM120.096 42.7647L121.082 42.5957L121.08 42.5889L120.096 42.7647ZM122.064 44.9487L121.663 45.8648L121.675 45.8702L121.688 45.8751L122.064 44.9487ZM123.744 45.4767L123.514 46.4498L123.528 46.4532L123.543 46.4563L123.744 45.4767ZM125.64 45.9087L125.398 46.8788L125.409 46.8817L125.421 46.8843L125.64 45.9087ZM127.488 46.4367L127.157 47.3802L127.164 47.3828L127.488 46.4367ZM129.096 47.2767L129.7 46.48L129.7 46.48L129.096 47.2767ZM130.2 48.6447L129.301 49.0816L129.308 49.0972L129.316 49.1126L130.2 48.6447ZM121.824 55.3887L122.122 54.4342L122.113 54.4314L122.104 54.4287L121.824 55.3887ZM119.832 54.3567L119.181 55.1159L119.188 55.1214L119.194 55.1267L119.832 54.3567ZM118.512 52.6047L117.594 53.0011L117.599 53.0138L117.605 53.0264L118.512 52.6047ZM118.056 50.1327V49.1327H117.056V50.1327H118.056ZM118.644 50.2157C118.715 51.078 118.908 51.8642 119.25 52.5479L121.038 51.6535C120.836 51.2492 120.693 50.7234 120.637 50.0496L118.644 50.2157ZM119.266 52.5795C119.613 53.216 120.059 53.7577 120.61 54.186L121.838 52.6073C121.525 52.3636 121.251 52.0413 121.022 51.6218L119.266 52.5795ZM120.624 54.1967C121.178 54.6123 121.805 54.9131 122.492 55.1042L123.028 53.1772C122.564 53.0482 122.166 52.853 121.824 52.5967L120.624 54.1967ZM122.518 55.1108C123.181 55.2766 123.879 55.3567 124.608 55.3567V53.3567C124.025 53.3567 123.491 53.2928 123.003 53.1705L122.518 55.1108ZM124.608 55.3567C125.455 55.3567 126.234 55.2513 126.924 55.0146L126.276 53.1227C125.846 53.2701 125.297 53.3567 124.608 53.3567V55.3567ZM126.924 55.0146C127.583 54.7889 128.166 54.4718 128.641 54.0406L127.295 52.5607C127.066 52.7696 126.737 52.9645 126.276 53.1227L126.924 55.0146ZM128.659 54.024C129.114 53.5892 129.458 53.0785 129.674 52.496L127.798 51.8014C127.694 52.0829 127.526 52.3402 127.278 52.5773L128.659 54.024ZM129.662 52.526C129.888 51.9707 130 51.3862 130 50.7807H128C128 51.1351 127.936 51.4627 127.81 51.7714L129.662 52.526ZM130 50.7807C130 49.9609 129.814 49.1915 129.351 48.5587L127.737 49.7387C127.882 49.9379 128 50.2564 128 50.7807H130ZM129.351 48.5587C128.948 48.0072 128.425 47.5732 127.803 47.2521L126.885 49.0293C127.255 49.2202 127.532 49.4582 127.737 49.7387L129.351 48.5587ZM127.837 47.2707C127.265 46.9464 126.618 46.7003 125.907 46.5225L125.422 48.4628C125.99 48.605 126.463 48.7909 126.851 49.0107L127.837 47.2707ZM125.912 46.524C125.275 46.3605 124.614 46.2055 123.93 46.0589L123.511 48.0145C124.17 48.1559 124.805 48.3049 125.416 48.4613L125.912 46.524ZM123.957 46.0652C123.325 45.9111 122.701 45.7339 122.085 45.5336L121.467 47.4357C122.131 47.6515 122.803 47.8423 123.483 48.0082L123.957 46.0652ZM122.092 45.536C121.554 45.3567 121.084 45.1196 120.675 44.8292L119.517 46.4602C120.1 46.8737 120.75 47.1967 121.46 47.4334L122.092 45.536ZM120.687 44.8383C120.328 44.575 120.03 44.2377 119.793 43.8129L118.047 44.7885C118.418 45.4516 118.904 46.0103 119.505 46.4511L120.687 44.8383ZM119.799 43.8236C119.596 43.4505 119.464 42.9231 119.464 42.1887H117.464C117.464 43.1503 117.636 44.0309 118.041 44.7778L119.799 43.8236ZM119.464 42.1887C119.464 41.7361 119.555 41.2938 119.743 40.8546L117.905 40.0668C117.613 40.7475 117.464 41.4573 117.464 42.1887H119.464ZM119.734 40.8764C119.93 40.447 120.214 40.061 120.597 39.716L119.259 38.2294C118.682 38.7484 118.23 39.3544 117.915 40.0449L119.734 40.8764ZM120.585 39.7268C120.969 39.3926 121.467 39.1068 122.105 38.8852L121.448 36.9962C120.613 37.2865 119.88 37.6888 119.271 38.2186L120.585 39.7268ZM122.105 38.8852C122.714 38.6733 123.447 38.5567 124.32 38.5567V36.5567C123.273 36.5567 122.31 36.696 121.448 36.9962L122.105 38.8852ZM124.32 38.5567C125.206 38.5567 125.929 38.6805 126.511 38.9001L127.217 37.0292C126.359 36.7048 125.386 36.5567 124.32 36.5567V38.5567ZM126.517 38.9027C127.139 39.1324 127.618 39.4366 127.981 39.7998L129.395 38.3856C128.798 37.7888 128.061 37.341 127.211 37.0267L126.517 38.9027ZM127.993 39.8117C128.368 40.1743 128.647 40.5954 128.835 41.0837L130.701 40.3657C130.409 39.606 129.968 38.9391 129.383 38.3737L127.993 39.8117ZM128.835 41.0837C129.028 41.5871 129.128 42.1288 129.128 42.7167H131.128C131.128 41.8965 130.988 41.1102 130.701 40.3657L128.835 41.0837ZM130.128 41.7167H128.568V43.7167H130.128V41.7167ZM129.568 42.7167C129.568 41.9394 129.426 41.2118 129.102 40.5655L127.314 41.4599C127.47 41.7735 127.568 42.182 127.568 42.7167H129.568ZM129.114 40.5898C128.825 39.971 128.413 39.448 127.877 39.0405L126.667 40.6328C126.931 40.8333 127.143 41.0943 127.302 41.4356L129.114 40.5898ZM127.877 39.0405C127.371 38.6561 126.801 38.378 126.175 38.202L125.633 40.1273C126.032 40.2393 126.373 40.4092 126.667 40.6328L127.877 39.0405ZM126.175 38.202C125.573 38.0327 124.953 37.9487 124.32 37.9487V39.9487C124.775 39.9487 125.211 40.0087 125.633 40.1273L126.175 38.202ZM124.32 37.9487C123.398 37.9487 122.555 38.081 121.823 38.3856L122.593 40.2318C123.014 40.0564 123.578 39.9487 124.32 39.9487V37.9487ZM121.837 38.3802C121.166 38.6486 120.582 39.0221 120.126 39.5224L121.603 40.8709C121.818 40.6352 122.13 40.4168 122.579 40.2372L121.837 38.3802ZM120.126 39.5224C119.693 39.9964 119.38 40.5391 119.207 41.146L121.13 41.6954C121.212 41.4063 121.363 41.1329 121.603 40.8709L120.126 39.5224ZM119.207 41.146C119.038 41.7368 119.004 42.3389 119.112 42.9405L121.08 42.5889C121.028 42.2945 121.042 42.0005 121.13 41.6954L119.207 41.146ZM119.11 42.9336C119.236 43.6686 119.545 44.3239 120.078 44.832L121.459 43.3853C121.287 43.2215 121.148 42.9808 121.082 42.5957L119.11 42.9336ZM120.078 44.832C120.526 45.2598 121.06 45.6008 121.663 45.8648L122.465 44.0325C122.044 43.8485 121.714 43.6296 121.459 43.3853L120.078 44.832ZM121.688 45.8751C122.253 46.1047 122.862 46.2955 123.514 46.4498L123.975 44.5036C123.41 44.3699 122.899 44.2087 122.44 44.0222L121.688 45.8751ZM123.543 46.4563C124.153 46.5813 124.771 46.7221 125.398 46.8788L125.883 44.9385C125.229 44.7752 124.583 44.628 123.945 44.4971L123.543 46.4563ZM125.421 46.8843C126.024 47.0201 126.603 47.1856 127.157 47.3801L127.82 45.4932C127.189 45.2718 126.536 45.0852 125.86 44.9331L125.421 46.8843ZM127.164 47.3828C127.682 47.5599 128.121 47.7921 128.492 48.0734L129.7 46.48C129.143 46.0572 128.51 45.7295 127.812 45.4905L127.164 47.3828ZM128.492 48.0734C128.822 48.3238 129.092 48.6531 129.301 49.0816L131.1 48.2078C130.764 47.5163 130.298 46.9335 129.7 46.48L128.492 48.0734ZM129.316 49.1126C129.506 49.4707 129.632 49.985 129.632 50.7087H131.632C131.632 49.7684 131.47 48.9066 131.084 48.1768L129.316 49.1126ZM129.632 50.7087C129.632 52.0502 129.185 52.9833 128.353 53.6467L129.599 55.2107C130.975 54.114 131.632 52.5672 131.632 50.7087H129.632ZM128.353 53.6467C127.487 54.3371 126.186 54.7487 124.32 54.7487V56.7487C126.454 56.7487 128.258 56.2802 129.599 55.2107L128.353 53.6467ZM124.32 54.7487C123.514 54.7487 122.784 54.6408 122.122 54.4342L121.526 56.3432C122.401 56.6165 123.334 56.7487 124.32 56.7487V54.7487ZM122.104 54.4287C121.454 54.2391 120.915 53.9552 120.47 53.5867L119.194 55.1267C119.869 55.6862 120.658 56.0903 121.544 56.3487L122.104 54.4287ZM120.483 53.5974C120.034 53.2131 119.68 52.7453 119.419 52.1829L117.605 53.0264C117.984 53.8401 118.51 54.5403 119.181 55.1159L120.483 53.5974ZM119.43 52.2082C119.191 51.6548 119.056 50.971 119.056 50.1327H117.056C117.056 51.1824 117.225 52.1466 117.594 53.0011L119.43 52.2082ZM118.056 51.1327H119.64V49.1327H118.056V51.1327ZM143.72 48.7647H144.72V47.2586L143.332 47.843L143.72 48.7647ZM141.872 49.2687L141.745 48.2768L141.745 48.2768L141.872 49.2687ZM140 49.4607L140.072 50.4581L140.077 50.4577L140 49.4607ZM137.408 50.2047L136.853 49.3726L136.843 49.3794L137.408 50.2047ZM136.712 53.1087L135.818 53.5559L135.833 53.5863L135.85 53.6157L136.712 53.1087ZM137.312 53.8047L136.687 54.5855L136.716 54.6082L136.745 54.6287L137.312 53.8047ZM138.176 54.2127L137.889 55.1705L137.916 55.1788L137.944 55.1855L138.176 54.2127ZM140.864 54.1167L141.12 55.0834L141.12 55.0834L140.864 54.1167ZM142.304 53.4687L142.873 54.2909L142.879 54.2865L142.304 53.4687ZM143.336 52.3407L144.204 52.8368L144.208 52.8303L144.212 52.8238L143.336 52.3407ZM141.296 48.0447L141.179 47.0515L141.172 47.0524L141.165 47.0533L141.296 48.0447ZM142.256 47.9007L142.092 46.9143L142.085 46.9155L142.256 47.9007ZM143.192 47.6367L143.615 48.5429L143.615 48.5429L143.192 47.6367ZM143.624 47.0847L142.651 46.8556L142.645 46.8779L142.641 46.9004L143.624 47.0847ZM143 44.5407L142.281 45.2357L142.293 45.2479L142.305 45.2597L143 44.5407ZM139.256 43.9647L139.445 44.9467L139.463 44.9432L139.481 44.9391L139.256 43.9647ZM138.152 44.4207L138.717 45.246L138.725 45.2399L138.152 44.4207ZM137.384 45.2847L136.513 44.7926L136.51 44.7992L136.506 44.8058L137.384 45.2847ZM137 46.6287V47.6287H137.889L137.993 46.7455L137 46.6287ZM135.536 46.6287L134.538 46.5636L134.469 47.6287H135.536V46.6287ZM136.04 44.7567L136.912 45.247L136.918 45.2355L136.04 44.7567ZM137.144 43.4847L137.725 44.2984L137.73 44.2946L137.144 43.4847ZM138.728 42.7647L138.964 43.7363L138.973 43.7341L138.982 43.7318L138.728 42.7647ZM142.4 42.7407L142.144 43.7074L142.161 43.7117L142.177 43.7155L142.4 42.7407ZM143.84 43.3887L143.235 44.1848L143.253 44.1983L143.271 44.2109L143.84 43.3887ZM144.8 44.5647L143.889 44.9763L143.894 44.9883L143.9 45.0002L144.8 44.5647ZM145.448 54.2367L144.808 55.0049L144.842 55.0335L144.879 55.0589L145.448 54.2367ZM146.672 54.1167H147.672V52.6825L146.326 53.1783L146.672 54.1167ZM146.672 55.2447L146.947 56.2062L147.672 55.999V55.2447H146.672ZM146.168 55.3887L145.893 54.4272L145.884 54.4299L145.874 54.4329L146.168 55.3887ZM144.896 55.4127L145.121 54.4383L145.075 54.4277L145.028 54.4215L144.896 55.4127ZM144.32 55.1967L143.656 55.9441L143.68 55.9659L143.706 55.986L144.32 55.1967ZM143.96 54.7647L143.05 55.1785L143.073 55.2303L143.102 55.2792L143.96 54.7647ZM143.792 54.2127L142.803 54.3647L142.806 54.3771L143.792 54.2127ZM143.744 53.5647H144.744V50.9689L143.002 52.8938L143.744 53.5647ZM137.528 55.4127L137.249 56.3731L137.257 56.3753L137.528 55.4127ZM136.208 54.7407L136.829 53.9566L136.208 54.7407ZM135.296 53.6367L134.402 54.0839L134.405 54.0905L134.408 54.097L135.296 53.6367ZM139.304 48.3087L139.173 47.3173L139.172 47.3174L139.304 48.3087ZM143.332 47.843C142.803 48.0656 142.275 48.2088 141.745 48.2768L141.999 50.2606C142.717 50.1685 143.421 49.9757 144.108 49.6863L143.332 47.843ZM141.745 48.2768C141.137 48.3547 140.53 48.4169 139.923 48.4636L140.077 50.4577C140.718 50.4084 141.358 50.3427 141.999 50.2606L141.745 48.2768ZM139.928 48.4633C138.728 48.5503 137.674 48.8257 136.853 49.3726L137.963 51.0367C138.39 50.7516 139.064 50.5311 140.072 50.4581L139.928 48.4633ZM136.843 49.3794C135.918 50.0122 135.496 50.9804 135.496 52.1007H137.496C137.496 51.525 137.681 51.2292 137.973 51.03L136.843 49.3794ZM135.496 52.1007C135.496 52.6103 135.592 53.1048 135.818 53.5559L137.606 52.6615C137.544 52.5366 137.496 52.3591 137.496 52.1007H135.496ZM135.85 53.6157C136.07 53.9898 136.35 54.3154 136.687 54.5855L137.937 53.0238C137.794 52.9099 137.674 52.7716 137.574 52.6017L135.85 53.6157ZM136.745 54.6287C137.093 54.8678 137.477 55.0469 137.889 55.1705L138.463 53.2549C138.235 53.1864 138.043 53.0935 137.878 52.9806L136.745 54.6287ZM137.944 55.1855C138.354 55.283 138.768 55.3327 139.184 55.3327V53.3327C138.928 53.3327 138.67 53.3023 138.408 53.2399L137.944 55.1855ZM139.184 55.3327C139.844 55.3327 140.49 55.25 141.12 55.0834L140.608 53.15C140.15 53.2714 139.676 53.3327 139.184 53.3327V55.3327ZM141.12 55.0834C141.763 54.913 142.352 54.6518 142.873 54.2909L141.735 52.6465C141.424 52.8615 141.053 53.0323 140.608 53.15L141.12 55.0834ZM142.879 54.2865C143.428 53.9001 143.874 53.4153 144.204 52.8368L142.468 51.8445C142.286 52.1621 142.043 52.4292 141.728 52.6509L142.879 54.2865ZM144.212 52.8238C144.563 52.1876 144.72 51.4716 144.72 50.7087H142.72C142.72 51.1938 142.621 51.5658 142.46 51.8576L144.212 52.8238ZM144.72 50.7087V48.7647H142.72V50.7087H144.72ZM141.413 49.0378C141.708 49.0031 142.047 48.952 142.427 48.8859L142.085 46.9155C141.729 46.9774 141.428 47.0223 141.179 47.0515L141.413 49.0378ZM142.42 48.8871C142.856 48.8145 143.264 48.7066 143.615 48.5429L142.769 46.7305C142.64 46.7908 142.424 46.8589 142.092 46.9143L142.42 48.8871ZM143.615 48.5429C144.141 48.2973 144.498 47.8481 144.607 47.269L142.641 46.9004C142.643 46.8891 142.655 46.8466 142.692 46.7984C142.73 46.7507 142.766 46.7321 142.769 46.7305L143.615 48.5429ZM144.597 47.3137C144.675 46.9843 144.72 46.658 144.72 46.3407H142.72C142.72 46.4714 142.701 46.6411 142.651 46.8556L144.597 47.3137ZM144.72 46.3407C144.72 45.3642 144.391 44.4944 143.695 43.8217L142.305 45.2597C142.569 45.515 142.72 45.8451 142.72 46.3407H144.72ZM143.719 43.8457C142.973 43.0736 141.841 42.8207 140.624 42.8207V44.8207C141.647 44.8207 142.099 45.0477 142.281 45.2357L143.719 43.8457ZM140.624 42.8207C140.064 42.8207 139.532 42.8748 139.031 42.9903L139.481 44.9391C139.812 44.8626 140.192 44.8207 140.624 44.8207V42.8207ZM139.067 42.9827C138.525 43.087 138.023 43.2901 137.578 43.6014L138.725 45.2399C138.921 45.1033 139.155 45.0024 139.445 44.9467L139.067 42.9827ZM137.587 43.5954C137.14 43.9015 136.785 44.3113 136.513 44.7926L138.255 45.7767C138.398 45.5221 138.556 45.3558 138.717 45.246L137.587 43.5954ZM136.506 44.8058C136.235 45.3029 136.081 45.8844 136.007 46.5118L137.993 46.7455C138.047 46.285 138.149 45.9704 138.262 45.7635L136.506 44.8058ZM137 45.6287H135.536V47.6287H137V45.6287ZM136.534 46.6938C136.575 46.07 136.713 45.5995 136.912 45.2469L135.168 44.2664C134.791 44.9379 134.593 45.7153 134.538 46.5636L136.534 46.6938ZM136.918 45.2355C137.14 44.8277 137.411 44.5227 137.725 44.2984L136.563 42.6709C135.981 43.0866 135.516 43.6297 135.162 44.2778L136.918 45.2355ZM137.73 44.2946C138.083 44.0395 138.49 43.8516 138.964 43.7363L138.492 41.793C137.782 41.9657 137.133 42.2579 136.557 42.6747L137.73 44.2946ZM138.982 43.7318C139.502 43.5951 140.056 43.5247 140.648 43.5247V41.5247C139.896 41.5247 139.17 41.6143 138.473 41.7976L138.982 43.7318ZM140.648 43.5247C141.195 43.5247 141.692 43.5877 142.144 43.7074L142.656 41.774C142.02 41.6056 141.349 41.5247 140.648 41.5247V43.5247ZM142.177 43.7155C142.618 43.8164 142.963 43.9784 143.235 44.1848L144.445 42.5925C143.917 42.1909 143.302 41.921 142.623 41.7658L142.177 43.7155ZM143.271 44.2109C143.526 44.3878 143.733 44.6327 143.889 44.9763L145.711 44.1531C145.418 43.5047 144.986 42.9656 144.409 42.5665L143.271 44.2109ZM143.9 45.0002C144.057 45.3254 144.16 45.7751 144.16 46.3887H146.16C146.16 45.5623 146.023 44.7959 145.7 44.1291L143.9 45.0002ZM144.16 46.3887V53.1567H146.16V46.3887H144.16ZM144.16 53.1567C144.16 53.4847 144.187 53.8095 144.266 54.1043C144.342 54.3913 144.492 54.7421 144.808 55.0049L146.088 53.4685C146.212 53.5713 146.218 53.662 146.198 53.589C146.181 53.5238 146.16 53.3886 146.16 53.1567H144.16ZM144.879 55.0589C145.267 55.3274 145.705 55.3396 146.008 55.3099C146.331 55.2782 146.674 55.1816 147.018 55.055L146.326 53.1783C146.062 53.2758 145.897 53.3111 145.812 53.3195C145.773 53.3233 145.775 53.3186 145.808 53.3241C145.842 53.33 145.924 53.3498 146.017 53.4145L144.879 55.0589ZM145.672 54.1167V55.2447H147.672V54.1167H145.672ZM146.397 54.2832C146.285 54.3152 146.117 54.3632 145.893 54.4272L146.443 56.3502C146.667 56.2862 146.835 56.2382 146.947 56.2062L146.397 54.2832ZM145.874 54.4329C145.757 54.4689 145.648 54.4847 145.544 54.4847V56.4847C145.856 56.4847 146.163 56.4364 146.462 56.3445L145.874 54.4329ZM145.544 54.4847C145.392 54.4847 145.252 54.4685 145.121 54.4383L144.671 56.3871C144.956 56.4529 145.248 56.4847 145.544 56.4847V54.4847ZM145.028 54.4215C144.908 54.4054 144.899 54.3806 144.934 54.4073L143.706 55.986C144.028 56.2368 144.404 56.3559 144.764 56.4039L145.028 54.4215ZM144.984 54.4493C144.914 54.3864 144.86 54.3204 144.817 54.2502L143.102 55.2792C143.252 55.529 143.438 55.7509 143.656 55.9441L144.984 54.4493ZM144.87 54.3509C144.827 54.2549 144.796 54.1548 144.778 54.0483L142.806 54.3771C142.852 54.6546 142.933 54.9225 143.05 55.1785L144.87 54.3509ZM144.78 54.0606C144.757 53.906 144.744 53.741 144.744 53.5647H142.744C142.744 53.8363 142.763 54.1033 142.804 54.3647L144.78 54.0606ZM143.002 52.8938C142.482 53.4689 141.897 53.8961 141.246 54.1884L142.066 56.0129C142.982 55.6012 143.79 55.0044 144.485 54.2356L143.002 52.8938ZM141.246 54.1884C140.599 54.4791 139.892 54.6287 139.112 54.6287V56.6287C140.156 56.6287 141.145 56.4263 142.066 56.0129L141.246 54.1884ZM139.112 54.6287C138.657 54.6287 138.221 54.5687 137.799 54.45L137.257 56.3753C137.859 56.5447 138.479 56.6287 139.112 56.6287V54.6287ZM137.807 54.4523C137.428 54.3424 137.106 54.176 136.829 53.9566L135.587 55.5247C136.078 55.9134 136.636 56.1949 137.249 56.373L137.807 54.4523ZM136.829 53.9566C136.555 53.7399 136.342 53.4819 136.184 53.1764L134.408 54.097C134.698 54.6554 135.093 55.1335 135.587 55.5247L136.829 53.9566ZM136.19 53.1895C136.049 52.9069 135.96 52.5382 135.96 52.0527H133.96C133.96 52.7832 134.095 53.4704 134.402 54.0839L136.19 53.1895ZM135.96 52.0527C135.96 51.2533 136.22 50.7029 136.699 50.2902C137.217 49.8437 138.086 49.479 139.435 49.3L139.172 47.3174C137.626 47.5224 136.323 47.9736 135.393 48.7752C134.424 49.6105 133.96 50.74 133.96 52.0527H135.96ZM139.435 49.3L141.427 49.036L141.165 47.0533L139.173 47.3173L139.435 49.3ZM149.76 42.8607V41.8607H148.307L148.826 43.2177L149.76 42.8607ZM151.32 42.8607L152.255 42.5068L152.011 41.8607H151.32V42.8607ZM155.352 53.5167L154.417 53.8706L155.352 56.3424L156.287 53.8706L155.352 53.5167ZM159.384 42.8607V41.8607H158.693L158.449 42.5068L159.384 42.8607ZM160.944 42.8607L161.876 43.2224L162.405 41.8607H160.944V42.8607ZM156.12 55.2927V56.2927H156.804L157.052 55.6544L156.12 55.2927ZM154.512 55.2927L153.578 55.6497L153.824 56.2927H154.512V55.2927ZM149.76 43.8607H151.32V41.8607H149.76V43.8607ZM150.385 43.2146L154.417 53.8706L156.287 53.1628L152.255 42.5068L150.385 43.2146ZM156.287 53.8706L160.319 43.2146L158.449 42.5068L154.417 53.1628L156.287 53.8706ZM159.384 43.8607H160.944V41.8607H159.384V43.8607ZM160.012 42.4989L155.188 54.9309L157.052 55.6544L161.876 43.2224L160.012 42.4989ZM156.12 54.2927H154.512V56.2927H156.12V54.2927ZM155.446 54.9356L150.694 42.5036L148.826 43.2177L153.578 55.6497L155.446 54.9356ZM174.24 48.2127V49.2127H175.24V48.2127H174.24ZM173.976 46.5087L173.017 46.7908L173.022 46.808L173.027 46.8249L173.976 46.5087ZM173.232 45.1167L172.451 45.7414L172.465 45.7586L172.479 45.7752L173.232 45.1167ZM172.008 44.1807L171.572 45.0808L171.584 45.0866L171.596 45.092L172.008 44.1807ZM168.6 44.1807L168.164 43.2804L168.153 43.2863L168.6 44.1807ZM167.352 45.1407L166.601 44.4801L166.594 44.4887L166.586 44.4975L167.352 45.1407ZM166.536 46.5327L165.605 46.1662L165.605 46.1662L166.536 46.5327ZM166.128 48.2127L165.134 48.1052L165.014 49.2127H166.128V48.2127ZM166.128 49.4127V48.4127H165.128V49.4127H166.128ZM166.392 51.3327L165.431 51.6107L165.433 51.6176L166.392 51.3327ZM167.16 52.8927L166.36 53.4927L166.372 53.5088L166.385 53.5244L167.16 52.8927ZM168.48 53.9487L168.022 54.8377L168.033 54.8432L168.044 54.8485L168.48 53.9487ZM172.728 53.5887L172.134 52.7841L172.134 52.7841L172.728 53.5887ZM174.072 51.4767V50.4767H173.288L173.101 51.2382L174.072 51.4767ZM175.68 51.4767L176.638 51.7616L177.02 50.4767H175.68V51.4767ZM174.984 53.1327L175.849 53.6349L175.855 53.6229L174.984 53.1327ZM173.904 54.4527L174.552 55.2139L174.56 55.2071L174.568 55.2001L173.904 54.4527ZM172.368 55.3167L172.036 54.3732L172.368 55.3167ZM165.96 53.7567L165.173 54.3736L165.181 54.384L165.96 53.7567ZM164.928 51.6927L163.965 51.9623L163.966 51.9674L164.928 51.6927ZM164.976 46.5567L164.029 46.2348L164.026 46.2433L164.023 46.2519L164.976 46.5567ZM166.104 44.4687L165.329 43.8365L165.327 43.8389L166.104 44.4687ZM167.904 43.0527L168.335 43.9552L168.343 43.9512L168.351 43.9471L167.904 43.0527ZM174.336 44.3007L173.564 44.9368L173.569 44.9419L174.336 44.3007ZM175.776 49.4127V50.4127H176.769L176.776 49.4198L175.776 49.4127ZM175.24 48.2127C175.24 47.5071 175.138 46.8314 174.925 46.1925L173.027 46.8249C173.166 47.242 173.24 47.7023 173.24 48.2127H175.24ZM174.935 46.2265C174.739 45.5591 174.426 44.9628 173.984 44.4582L172.479 45.7752C172.71 46.0386 172.893 46.3702 173.017 46.7908L174.935 46.2265ZM174.013 44.492C173.588 43.9609 173.05 43.5542 172.419 43.2693L171.596 45.092C171.958 45.2552 172.236 45.4724 172.451 45.7414L174.013 44.492ZM172.443 43.2805C171.791 42.965 171.07 42.8207 170.304 42.8207V44.8207C170.817 44.8207 171.232 44.9164 171.572 45.0808L172.443 43.2805ZM170.304 42.8207C169.537 42.8207 168.816 42.965 168.164 43.2805L169.035 45.0808C169.375 44.9164 169.79 44.8207 170.304 44.8207V42.8207ZM168.153 43.2863C167.558 43.5835 167.039 43.9826 166.601 44.4801L168.103 45.8013C168.369 45.4988 168.682 45.2579 169.047 45.0751L168.153 43.2863ZM166.586 44.4975C166.175 44.987 165.85 45.5463 165.605 46.1662L167.466 46.8992C167.638 46.4631 167.857 46.0943 168.118 45.7839L166.586 44.4975ZM165.605 46.1662C165.363 46.7813 165.207 47.4288 165.134 48.1052L167.122 48.3202C167.177 47.8126 167.293 47.3401 167.466 46.8992L165.605 46.1662ZM166.128 49.2127H174.24V47.2127H166.128V49.2127ZM165.128 49.4127C165.128 50.173 165.228 50.907 165.431 51.6107L167.352 51.0546C167.204 50.5424 167.128 49.9964 167.128 49.4127H165.128ZM165.433 51.6176C165.64 52.3116 165.946 52.9406 166.36 53.4927L167.96 52.2927C167.702 51.9487 167.496 51.5378 167.35 51.0477L165.433 51.6176ZM166.385 53.5244C166.829 54.0699 167.38 54.5068 168.022 54.8377L168.938 53.0597C168.524 52.8465 168.195 52.5794 167.935 52.261L166.385 53.5244ZM168.044 54.8485C168.729 55.1809 169.491 55.3327 170.304 55.3327V53.3327C169.741 53.3327 169.287 53.2285 168.916 53.0489L168.044 54.8485ZM170.304 55.3327C171.433 55.3327 172.456 55.0324 173.322 54.3933L172.134 52.7841C171.656 53.1369 171.063 53.3327 170.304 53.3327V55.3327ZM173.322 54.3933C174.205 53.7412 174.771 52.8242 175.043 51.7152L173.101 51.2382C172.925 51.9532 172.595 52.4442 172.134 52.7841L173.322 54.3933ZM174.072 52.4767H175.68V50.4767H174.072V52.4767ZM174.721 51.1917C174.566 51.7159 174.362 52.1986 174.112 52.6424L175.855 53.6229C176.182 53.0427 176.442 52.4215 176.638 51.7616L174.721 51.1917ZM174.119 52.6305C173.885 53.0339 173.593 53.3913 173.24 53.7053L174.568 55.2001C175.079 54.7461 175.507 54.2234 175.849 53.6348L174.119 52.6305ZM173.255 53.6914C172.926 53.9717 172.525 54.2017 172.036 54.3732L172.699 56.2601C173.395 56.0157 174.017 55.6696 174.552 55.2139L173.255 53.6914ZM172.036 54.3732C171.574 54.5358 171.002 54.6287 170.304 54.6287V56.6287C171.174 56.6287 171.978 56.5136 172.699 56.2601L172.036 54.3732ZM170.304 54.6287C169.423 54.6287 168.718 54.4793 168.159 54.2185L167.313 56.0309C168.194 56.442 169.201 56.6287 170.304 56.6287V54.6287ZM168.159 54.2185C167.567 53.9422 167.1 53.5778 166.739 53.1293L165.181 54.384C165.748 55.0876 166.465 55.6352 167.313 56.0309L168.159 54.2185ZM166.747 53.1398C166.369 52.6578 166.081 52.0882 165.889 51.418L163.966 51.9674C164.223 52.8651 164.623 53.6716 165.173 54.3736L166.747 53.1398ZM165.891 51.423C165.694 50.7189 165.592 49.9544 165.592 49.1247H163.592C163.592 50.119 163.714 51.0664 163.965 51.9623L165.891 51.423ZM165.592 49.1247C165.592 48.3073 165.706 47.5549 165.928 46.8615L164.023 46.2519C163.733 47.1585 163.592 48.1181 163.592 49.1247H165.592ZM165.923 46.8786C166.161 46.1783 166.483 45.5893 166.881 45.0985L165.327 43.8389C164.765 44.5321 164.335 45.335 164.029 46.2348L165.923 46.8786ZM166.879 45.1008C167.282 44.6065 167.765 44.2272 168.335 43.9552L167.473 42.1502C166.635 42.5502 165.918 43.1148 165.329 43.8366L166.879 45.1008ZM168.351 43.9471C168.898 43.6736 169.542 43.5247 170.304 43.5247V41.5247C169.274 41.5247 168.318 41.7278 167.457 42.1583L168.351 43.9471ZM170.304 43.5247C171.756 43.5247 172.802 44.0117 173.564 44.9368L175.108 43.6646C173.918 42.2216 172.275 41.5247 170.304 41.5247V43.5247ZM173.569 44.9419C174.335 45.8593 174.791 47.2937 174.776 49.4055L176.776 49.4198C176.793 47.0516 176.289 45.0781 175.103 43.6595L173.569 44.9419ZM175.776 48.4127H166.128V50.4127H175.776V48.4127ZM182.248 55.2927V56.2927H183.248V55.2927H182.248ZM180.808 55.2927H179.808V56.2927H180.808V55.2927ZM180.808 42.8607V41.8607H179.808V42.8607H180.808ZM182.248 42.8607H183.248V41.8607H182.248V42.8607ZM182.248 45.1887H181.248V46.1887H182.248V45.1887ZM182.296 45.1887V46.1887H182.971L183.223 45.5626L182.296 45.1887ZM183.832 43.1247L184.356 43.9764L184.362 43.9727L183.832 43.1247ZM186.352 42.5247H187.352V41.5247H186.352V42.5247ZM186.352 44.0847L186.332 45.0845L187.352 45.1045V44.0847H186.352ZM184.336 44.4687L183.878 43.5797L183.878 43.5797L184.336 44.4687ZM183.064 45.5727L182.241 45.0049L182.234 45.0147L182.227 45.0247L183.064 45.5727ZM182.416 47.2287L181.435 47.0326L181.433 47.0423L181.432 47.052L182.416 47.2287ZM182.248 54.2927H180.808V56.2927H182.248V54.2927ZM181.808 55.2927V42.8607H179.808V55.2927H181.808ZM180.808 43.8607H182.248V41.8607H180.808V43.8607ZM181.248 42.8607V45.1887H183.248V42.8607H181.248ZM182.248 46.1887H182.296V44.1887H182.248V46.1887ZM183.223 45.5626C183.579 44.6815 183.981 44.2074 184.356 43.9763L183.308 42.273C182.435 42.81 181.813 43.7119 181.368 44.8147L183.223 45.5626ZM184.362 43.9727C184.794 43.7028 185.431 43.5247 186.352 43.5247V41.5247C185.193 41.5247 184.15 41.7465 183.302 42.2767L184.362 43.9727ZM185.352 42.5247V44.0847H187.352V42.5247H185.352ZM186.371 43.0849C185.449 43.0668 184.598 43.2086 183.878 43.5797L184.794 45.3577C185.129 45.1848 185.623 45.0706 186.332 45.0845L186.371 43.0849ZM183.878 43.5797C183.212 43.9229 182.659 44.3981 182.241 45.0049L183.887 46.1404C184.109 45.8193 184.404 45.5585 184.794 45.3577L183.878 43.5797ZM182.227 45.0247C181.842 45.6128 181.584 46.2889 181.435 47.0326L183.396 47.4248C183.504 46.8885 183.678 46.4606 183.9 46.1207L182.227 45.0247ZM181.432 47.052C181.308 47.739 181.248 48.4544 181.248 49.1967H183.248C183.248 48.5629 183.299 47.9663 183.4 47.4053L181.432 47.052ZM181.248 49.1967V55.2927H183.248V49.1967H181.248Z" fill="black"/>
<defs>
<filter id="filter0_d" x="12.4642" y="26.4358" width="35.9541" height="48.9296" filterUnits="userSpaceOnUse" color-interpolation-filters="sRGB">
<feFlood flood-opacity="0" result="BackgroundImageFix"/>
<feColorMatrix in="SourceAlpha" type="matrix" values="0 0 0 0 0 0 0 0 0 0 0 0 0 0 0 0 0 0 127 0"/>
<feOffset dy="4"/>
<feGaussianBlur stdDeviation="2"/>
<feColorMatrix type="matrix" values="0 0 0 0 0 0 0 0 0 0 0 0 0 0 0 0 0 0 0.25 0"/>
<feBlend mode="normal" in2="BackgroundImageFix" result="effect1_dropShadow"/>
<feBlend mode="normal" in="SourceGraphic" in2="effect1_dropShadow" result="shape"/>
</filter>
<filter id="filter1_d" x="20.5581" y="1.90244" width="19.1628" height="38.8566" filterUnits="userSpaceOnUse" color-interpolation-filters="sRGB">
<feFlood flood-opacity="0" result="BackgroundImageFix"/>
<feColorMatrix in="SourceAlpha" type="matrix" values="0 0 0 0 0 0 0 0 0 0 0 0 0 0 0 0 0 0 127 0"/>
<feOffset dy="4"/>
<feGaussianBlur stdDeviation="2"/>
<feColorMatrix type="matrix" values="0 0 0 0 0 0 0 0 0 0 0 0 0 0 0 0 0 0 0.25 0"/>
<feBlend mode="normal" in2="BackgroundImageFix" result="effect1_dropShadow"/>
<feBlend mode="normal" in="SourceGraphic" in2="effect1_dropShadow" result="shape"/>
</filter>
<filter id="filter2_d" x="22.9725" y="7.96863" width="35.0387" height="31.9656" filterUnits="userSpaceOnUse" color-interpolation-filters="sRGB">
<feFlood flood-opacity="0" result="BackgroundImageFix"/>
<feColorMatrix in="SourceAlpha" type="matrix" values="0 0 0 0 0 0 0 0 0 0 0 0 0 0 0 0 0 0 127 0"/>
<feOffset dy="4"/>
<feGaussianBlur stdDeviation="2"/>
<feColorMatrix type="matrix" values="0 0 0 0 0 0 0 0 0 0 0 0 0 0 0 0 0 0 0.25 0"/>
<feBlend mode="normal" in2="BackgroundImageFix" result="effect1_dropShadow"/>
<feBlend mode="normal" in="SourceGraphic" in2="effect1_dropShadow" result="shape"/>
</filter>
<filter id="filter3_d" x="25.1268" y="17.1431" width="43.2293" height="24.0001" filterUnits="userSpaceOnUse" color-interpolation-filters="sRGB">
<feFlood flood-opacity="0" result="BackgroundImageFix"/>
<feColorMatrix in="SourceAlpha" type="matrix" values="0 0 0 0 0 0 0 0 0 0 0 0 0 0 0 0 0 0 127 0"/>
<feOffset dy="4"/>
<feGaussianBlur stdDeviation="2"/>
<feColorMatrix type="matrix" values="0 0 0 0 0 0 0 0 0 0 0 0 0 0 0 0 0 0 0.25 0"/>
<feBlend mode="normal" in2="BackgroundImageFix" result="effect1_dropShadow"/>
<feBlend mode="normal" in="SourceGraphic" in2="effect1_dropShadow" result="shape"/>
</filter>
</defs>
</svg>
