<svg width="206" height="78" viewBox="0 0 206 78" fill="none" xmlns="http://www.w3.org/2000/svg">
<path d="M15.5332 65.3026C15.4207 66.6406 17.3082 67.0391 18.3161 65.8902L38.9255 42.3962C39.6436 41.5775 39.3491 40.5115 38.3461 40.2998L20.0371 36.434C19.0342 36.2222 17.9138 36.9894 17.8336 37.9428L15.5332 65.3026Z" fill="#FA7268" stroke="black"/>
<path d="M32.0765 29.5244C32.0765 35.8891 29.9232 41.0488 27.2669 41.0488C24.6106 41.0488 22.4573 35.8891 22.4573 29.5244C22.4573 23.1596 24.6106 18 27.2669 18C29.9232 18 32.0765 23.1596 32.0765 29.5244Z" fill="#76CA8F" stroke="black"/>
<path d="M39.8114 33.647C33.6983 38.4424 27.1203 41.3604 25.119 40.1647C23.1177 38.969 26.451 34.1123 32.5641 29.3169C38.6771 24.5215 45.2552 21.6035 47.2565 22.7992C49.2578 23.9949 45.9245 28.8516 39.8114 33.647Z" fill="#76CA8F" stroke="black"/>
<path d="M43.7443 38.2981C35.4485 41.1712 27.7514 42.185 26.5523 40.5623C25.3532 38.9396 31.1062 35.295 39.402 32.4219C47.6978 29.5487 55.395 28.5349 56.5941 30.1576C57.7932 31.7803 52.0401 35.4249 43.7443 38.2981Z" fill="#76CA8F" stroke="black"/>
<path d="M50.3604 61V43.72H61.4964V45.112H51.9924V51.352H60.6324V52.744H51.9924V61H50.3604ZM73.3923 61.336C72.5923 61.32 71.8403 61.176 71.1363 60.904C70.4483 60.632 69.8403 60.224 69.3123 59.68C68.8003 59.136 68.3923 58.456 68.0883 57.64C67.7843 56.824 67.6323 55.872 67.6323 54.784C67.6323 53.872 67.7523 53.024 67.9923 52.24C68.2323 51.44 68.5923 50.744 69.0723 50.152C69.5523 49.56 70.1523 49.096 70.8723 48.76C71.5923 48.408 72.4323 48.232 73.3923 48.232C74.3683 48.232 75.2163 48.408 75.9363 48.76C76.6563 49.096 77.2563 49.56 77.7363 50.152C78.2163 50.728 78.5683 51.416 78.7923 52.216C79.0323 53.016 79.1523 53.872 79.1523 54.784C79.1523 55.776 79.0163 56.672 78.7443 57.472C78.4723 58.272 78.0803 58.96 77.5683 59.536C77.0723 60.112 76.4643 60.56 75.7443 60.88C75.0403 61.184 74.2563 61.336 73.3923 61.336ZM77.6163 54.784C77.6163 54.048 77.5363 53.36 77.3763 52.72C77.2163 52.08 76.9683 51.528 76.6323 51.064C76.2963 50.584 75.8643 50.208 75.3363 49.936C74.8083 49.664 74.1603 49.528 73.3923 49.528C72.6403 49.528 71.9923 49.68 71.4483 49.984C70.9203 50.272 70.4883 50.664 70.1523 51.16C69.8163 51.64 69.5683 52.2 69.4083 52.84C69.2483 53.464 69.1683 54.112 69.1683 54.784C69.1683 55.552 69.2563 56.264 69.4323 56.92C69.6243 57.56 69.8963 58.112 70.2483 58.576C70.6003 59.04 71.0403 59.4 71.5683 59.656C72.0963 59.912 72.7043 60.04 73.3923 60.04C74.1443 60.04 74.7843 59.896 75.3123 59.608C75.8563 59.304 76.2963 58.904 76.6323 58.408C76.9683 57.912 77.2163 57.352 77.3763 56.728C77.5363 56.104 77.6163 55.456 77.6163 54.784ZM91.5283 61.336C90.7283 61.32 89.9763 61.176 89.2723 60.904C88.5843 60.632 87.9763 60.224 87.4483 59.68C86.9363 59.136 86.5283 58.456 86.2243 57.64C85.9203 56.824 85.7683 55.872 85.7683 54.784C85.7683 53.872 85.8883 53.024 86.1283 52.24C86.3683 51.44 86.7283 50.744 87.2083 50.152C87.6883 49.56 88.2883 49.096 89.0083 48.76C89.7283 48.408 90.5683 48.232 91.5283 48.232C92.5043 48.232 93.3523 48.408 94.0723 48.76C94.7923 49.096 95.3923 49.56 95.8723 50.152C96.3523 50.728 96.7043 51.416 96.9283 52.216C97.1683 53.016 97.2883 53.872 97.2883 54.784C97.2883 55.776 97.1523 56.672 96.8803 57.472C96.6083 58.272 96.2163 58.96 95.7043 59.536C95.2083 60.112 94.6003 60.56 93.8803 60.88C93.1763 61.184 92.3923 61.336 91.5283 61.336ZM95.7523 54.784C95.7523 54.048 95.6723 53.36 95.5123 52.72C95.3523 52.08 95.1043 51.528 94.7683 51.064C94.4323 50.584 94.0003 50.208 93.4723 49.936C92.9443 49.664 92.2963 49.528 91.5283 49.528C90.7763 49.528 90.1283 49.68 89.5843 49.984C89.0563 50.272 88.6243 50.664 88.2883 51.16C87.9523 51.64 87.7043 52.2 87.5443 52.84C87.3843 53.464 87.3043 54.112 87.3043 54.784C87.3043 55.552 87.3923 56.264 87.5683 56.92C87.7603 57.56 88.0323 58.112 88.3843 58.576C88.7363 59.04 89.1763 59.4 89.7043 59.656C90.2323 59.912 90.8403 60.04 91.5283 60.04C92.2803 60.04 92.9203 59.896 93.4483 59.608C93.9923 59.304 94.4323 58.904 94.7683 58.408C95.1043 57.912 95.3523 57.352 95.5123 56.728C95.6723 56.104 95.7523 55.456 95.7523 54.784ZM114.32 54.736C114.32 54.032 114.224 53.368 114.032 52.744C113.84 52.104 113.56 51.552 113.192 51.088C112.84 50.608 112.4 50.232 111.872 49.96C111.36 49.672 110.776 49.528 110.12 49.528C109.368 49.528 108.72 49.68 108.176 49.984C107.632 50.272 107.184 50.672 106.832 51.184C106.48 51.696 106.224 52.296 106.064 52.984C105.904 53.656 105.84 54.384 105.872 55.168C105.872 55.952 105.976 56.648 106.184 57.256C106.408 57.848 106.712 58.352 107.096 58.768C107.48 59.184 107.928 59.504 108.44 59.728C108.952 59.936 109.512 60.04 110.12 60.04C110.792 60.04 111.392 59.904 111.92 59.632C112.448 59.36 112.888 58.992 113.24 58.528C113.592 58.048 113.856 57.488 114.032 56.848C114.224 56.192 114.32 55.488 114.32 54.736ZM114.32 43.72H115.76V61H114.32V58.816H114.272C114.064 59.232 113.792 59.6 113.456 59.92C113.136 60.224 112.776 60.48 112.376 60.688C111.992 60.896 111.592 61.056 111.176 61.168C110.76 61.28 110.352 61.336 109.952 61.336C108.944 61.336 108.088 61.168 107.384 60.832C106.68 60.496 106.096 60.04 105.632 59.464C105.184 58.872 104.856 58.176 104.648 57.376C104.44 56.576 104.336 55.72 104.336 54.808C104.336 53.944 104.448 53.112 104.672 52.312C104.896 51.512 105.232 50.816 105.68 50.224C106.144 49.616 106.72 49.136 107.408 48.784C108.112 48.416 108.936 48.232 109.88 48.232C110.76 48.232 111.6 48.432 112.4 48.832C113.216 49.216 113.856 49.792 114.32 50.56V43.72ZM125.08 55.84C125.144 56.608 125.312 57.264 125.584 57.808C125.872 58.336 126.232 58.768 126.664 59.104C127.112 59.44 127.624 59.688 128.2 59.848C128.776 59.992 129.392 60.064 130.048 60.064C130.816 60.064 131.48 59.968 132.04 59.776C132.6 59.584 133.056 59.328 133.408 59.008C133.76 58.672 134.016 58.288 134.176 57.856C134.352 57.424 134.44 56.968 134.44 56.488C134.44 55.816 134.288 55.272 133.984 54.856C133.68 54.44 133.28 54.104 132.784 53.848C132.304 53.576 131.744 53.36 131.104 53.2C130.48 53.04 129.832 52.888 129.16 52.744C128.504 52.584 127.856 52.4 127.216 52.192C126.592 51.984 126.032 51.704 125.536 51.352C125.056 51 124.664 50.552 124.36 50.008C124.056 49.448 123.904 48.744 123.904 47.896C123.904 47.304 124.024 46.728 124.264 46.168C124.52 45.608 124.888 45.112 125.368 44.68C125.864 44.248 126.48 43.904 127.216 43.648C127.952 43.392 128.8 43.264 129.76 43.264C130.736 43.264 131.584 43.4 132.304 43.672C133.04 43.944 133.648 44.32 134.128 44.8C134.608 45.264 134.968 45.808 135.208 46.432C135.448 47.056 135.568 47.72 135.568 48.424H134.008C134.008 47.768 133.888 47.2 133.648 46.72C133.424 46.24 133.112 45.848 132.712 45.544C132.312 45.24 131.856 45.016 131.344 44.872C130.832 44.728 130.304 44.656 129.76 44.656C128.928 44.656 128.224 44.776 127.648 45.016C127.088 45.24 126.64 45.536 126.304 45.904C125.968 46.272 125.736 46.68 125.608 47.128C125.48 47.576 125.456 48.024 125.536 48.472C125.632 49.032 125.856 49.48 126.208 49.816C126.56 50.152 126.992 50.432 127.504 50.656C128.016 50.864 128.576 51.04 129.184 51.184C129.808 51.312 130.44 51.456 131.08 51.616C131.72 51.76 132.336 51.936 132.928 52.144C133.536 52.352 134.072 52.632 134.536 52.984C135 53.336 135.368 53.792 135.64 54.352C135.928 54.896 136.072 55.584 136.072 56.416C136.072 58.016 135.52 59.256 134.416 60.136C133.312 61.016 131.76 61.456 129.76 61.456C128.864 61.456 128.032 61.336 127.264 61.096C126.496 60.872 125.832 60.528 125.272 60.064C124.712 59.584 124.272 59 123.952 58.312C123.648 57.608 123.496 56.784 123.496 55.84H125.08ZM151.8 54.472C151.192 54.728 150.576 54.896 149.952 54.976C149.328 55.056 148.704 55.12 148.08 55.168C146.976 55.248 146.112 55.496 145.488 55.912C144.88 56.328 144.576 56.96 144.576 57.808C144.576 58.192 144.648 58.528 144.792 58.816C144.952 59.088 145.152 59.32 145.392 59.512C145.648 59.688 145.936 59.824 146.256 59.92C146.592 60 146.928 60.04 147.264 60.04C147.84 60.04 148.4 59.968 148.944 59.824C149.488 59.68 149.968 59.464 150.384 59.176C150.816 58.872 151.16 58.496 151.416 58.048C151.672 57.584 151.8 57.04 151.8 56.416V54.472ZM149.376 53.752C149.648 53.72 149.968 53.672 150.336 53.608C150.72 53.544 151.032 53.456 151.272 53.344C151.512 53.232 151.656 53.048 151.704 52.792C151.768 52.52 151.8 52.272 151.8 52.048C151.8 51.312 151.56 50.712 151.08 50.248C150.616 49.768 149.824 49.528 148.704 49.528C148.208 49.528 147.752 49.576 147.336 49.672C146.92 49.752 146.552 49.904 146.232 50.128C145.928 50.336 145.672 50.624 145.464 50.992C145.272 51.344 145.144 51.792 145.08 52.336H143.616C143.664 51.6 143.832 50.976 144.12 50.464C144.408 49.936 144.776 49.512 145.224 49.192C145.688 48.856 146.216 48.616 146.808 48.472C147.416 48.312 148.056 48.232 148.728 48.232C149.352 48.232 149.936 48.304 150.48 48.448C151.04 48.576 151.52 48.792 151.92 49.096C152.336 49.384 152.656 49.776 152.88 50.272C153.12 50.768 153.24 51.376 153.24 52.096V58.864C153.24 59.424 153.336 59.784 153.528 59.944C153.736 60.088 154.144 60.048 154.752 59.824V60.952C154.64 60.984 154.472 61.032 154.248 61.096C154.04 61.16 153.832 61.192 153.624 61.192C153.4 61.192 153.184 61.168 152.976 61.12C152.736 61.088 152.544 61.016 152.4 60.904C152.256 60.776 152.136 60.632 152.04 60.472C151.96 60.296 151.904 60.112 151.872 59.92C151.84 59.712 151.824 59.496 151.824 59.272C151.216 59.944 150.52 60.456 149.736 60.808C148.952 61.16 148.104 61.336 147.192 61.336C146.648 61.336 146.12 61.264 145.608 61.12C145.112 60.976 144.672 60.752 144.288 60.448C143.904 60.144 143.6 59.776 143.376 59.344C143.152 58.896 143.04 58.368 143.04 57.76C143.04 55.648 144.488 54.4 147.384 54.016L149.376 53.752ZM160.48 48.568H162.04L166.072 59.224L170.104 48.568H171.664L166.84 61H165.232L160.48 48.568ZM187.6 53.92C187.6 53.312 187.512 52.744 187.336 52.216C187.176 51.672 186.928 51.208 186.592 50.824C186.272 50.424 185.864 50.112 185.368 49.888C184.872 49.648 184.304 49.528 183.664 49.528C183.024 49.528 182.456 49.648 181.96 49.888C181.48 50.128 181.064 50.448 180.712 50.848C180.376 51.248 180.104 51.712 179.896 52.24C179.688 52.768 179.552 53.328 179.488 53.92H187.6ZM179.488 55.12C179.488 55.792 179.576 56.432 179.752 57.04C179.928 57.632 180.184 58.152 180.52 58.6C180.872 59.032 181.312 59.384 181.84 59.656C182.368 59.912 182.976 60.04 183.664 60.04C184.608 60.04 185.416 59.792 186.088 59.296C186.76 58.8 187.208 58.096 187.432 57.184H189.04C188.864 57.776 188.632 58.328 188.344 58.84C188.056 59.336 187.696 59.776 187.264 60.16C186.832 60.528 186.32 60.816 185.728 61.024C185.136 61.232 184.448 61.336 183.664 61.336C182.672 61.336 181.816 61.168 181.096 60.832C180.376 60.496 179.784 60.04 179.32 59.464C178.856 58.872 178.512 58.184 178.288 57.4C178.064 56.6 177.952 55.744 177.952 54.832C177.952 53.92 178.08 53.064 178.336 52.264C178.608 51.464 178.984 50.768 179.464 50.176C179.96 49.568 180.56 49.096 181.264 48.76C181.968 48.408 182.768 48.232 183.664 48.232C185.376 48.232 186.72 48.824 187.696 50.008C188.672 51.176 189.152 52.88 189.136 55.12H179.488ZM198.248 61H196.808V48.568H198.248V50.896H198.296C198.696 49.904 199.208 49.216 199.832 48.832C200.472 48.432 201.312 48.232 202.352 48.232V49.792C201.536 49.776 200.864 49.904 200.336 50.176C199.808 50.448 199.384 50.816 199.064 51.28C198.76 51.744 198.544 52.296 198.416 52.936C198.304 53.56 198.248 54.216 198.248 54.904V61Z" fill="black"/>
<path d="M50.3604 61H49.8604V61.5H50.3604V61ZM50.3604 43.72V43.22H49.8604V43.72H50.3604ZM61.4964 43.72H61.9964V43.22H61.4964V43.72ZM61.4964 45.112V45.612H61.9964V45.112H61.4964ZM51.9924 45.112V44.612H51.4924V45.112H51.9924ZM51.9924 51.352H51.4924V51.852H51.9924V51.352ZM60.6324 51.352H61.1324V50.852H60.6324V51.352ZM60.6324 52.744V53.244H61.1324V52.744H60.6324ZM51.9924 52.744V52.244H51.4924V52.744H51.9924ZM51.9924 61V61.5H52.4924V61H51.9924ZM50.8604 61V43.72H49.8604V61H50.8604ZM50.3604 44.22H61.4964V43.22H50.3604V44.22ZM60.9964 43.72V45.112H61.9964V43.72H60.9964ZM61.4964 44.612H51.9924V45.612H61.4964V44.612ZM51.4924 45.112V51.352H52.4924V45.112H51.4924ZM51.9924 51.852H60.6324V50.852H51.9924V51.852ZM60.1324 51.352V52.744H61.1324V51.352H60.1324ZM60.6324 52.244H51.9924V53.244H60.6324V52.244ZM51.4924 52.744V61H52.4924V52.744H51.4924ZM51.9924 60.5H50.3604V61.5H51.9924V60.5ZM73.3923 61.336L73.3823 61.836H73.3923V61.336ZM71.1363 60.904L70.9525 61.369L70.9561 61.3704L71.1363 60.904ZM69.3123 59.68L68.9482 60.0227L68.9535 60.0282L69.3123 59.68ZM68.0883 57.64L67.6198 57.8146L67.6198 57.8146L68.0883 57.64ZM67.9923 52.24L68.4704 52.3864L68.4712 52.3837L67.9923 52.24ZM70.8723 48.76L71.0838 49.2132L71.0919 49.2092L70.8723 48.76ZM75.9363 48.76L75.7167 49.2093L75.7249 49.2131L75.9363 48.76ZM77.7363 50.152L77.3479 50.4669L77.3522 50.4721L77.7363 50.152ZM78.7923 52.216L78.3108 52.3508L78.3134 52.3597L78.7923 52.216ZM78.7443 57.472L79.2177 57.633L79.2177 57.633L78.7443 57.472ZM77.5683 59.536L77.1946 59.2038L77.1894 59.2097L77.5683 59.536ZM75.7443 60.88L75.9425 61.3391L75.9474 61.3369L75.7443 60.88ZM77.3763 52.72L77.8614 52.5987L77.8614 52.5987L77.3763 52.72ZM76.6323 51.064L76.2226 51.3508L76.2273 51.3573L76.6323 51.064ZM75.3363 49.936L75.5653 49.4915L75.5653 49.4915L75.3363 49.936ZM71.4483 49.984L71.6878 50.423L71.6922 50.4205L71.4483 49.984ZM70.1523 51.16L70.562 51.4468L70.5663 51.4404L70.1523 51.16ZM69.4083 52.84L69.8927 52.9642L69.8934 52.9613L69.4083 52.84ZM69.4323 56.92L68.9494 57.0496L68.9513 57.0566L68.9534 57.0637L69.4323 56.92ZM70.2483 58.576L69.85 58.8782L69.85 58.8782L70.2483 58.576ZM71.5683 59.656L71.3502 60.1059L71.3502 60.1059L71.5683 59.656ZM75.3123 59.608L75.5518 60.047L75.5562 60.0445L75.3123 59.608ZM76.6323 58.408L77.0463 58.6884L77.0463 58.6884L76.6323 58.408ZM77.3763 56.728L77.8607 56.8522L77.8607 56.8522L77.3763 56.728ZM73.4023 60.8361C72.657 60.8212 71.963 60.6874 71.3165 60.4376L70.9561 61.3704C71.7177 61.6646 72.5276 61.8188 73.3823 61.8359L73.4023 60.8361ZM71.3201 60.439C70.6997 60.1937 70.151 59.8262 69.6711 59.3318L68.9535 60.0282C69.5297 60.6218 70.1969 61.0703 70.9525 61.369L71.3201 60.439ZM69.6764 59.3373C69.217 58.8492 68.8414 58.2292 68.5569 57.4654L67.6198 57.8146C67.9432 58.6828 68.3836 59.4228 68.9482 60.0227L69.6764 59.3373ZM68.5569 57.4654C68.2781 56.7173 68.1323 55.8267 68.1323 54.784H67.1323C67.1323 55.9173 67.2905 56.9307 67.6198 57.8146L68.5569 57.4654ZM68.1323 54.784C68.1323 53.9161 68.2465 53.1179 68.4704 52.3864L67.5142 52.0936C67.2582 52.9301 67.1323 53.8279 67.1323 54.784H68.1323ZM68.4712 52.3837C68.6943 51.6401 69.0255 51.0036 69.4607 50.4669L68.6839 49.8371C68.1591 50.4844 67.7703 51.2399 67.5134 52.0963L68.4712 52.3837ZM69.4607 50.4669C69.8909 49.9363 70.4294 49.5184 71.0838 49.2131L70.6609 48.3069C69.8752 48.6736 69.2137 49.1837 68.6839 49.8371L69.4607 50.4669ZM71.0919 49.2092C71.7313 48.8966 72.4935 48.732 73.3923 48.732V47.732C72.3711 47.732 71.4533 47.9194 70.6527 48.3108L71.0919 49.2092ZM73.3923 48.732C74.3085 48.732 75.0784 48.8971 75.7167 49.2092L76.1559 48.3108C75.3543 47.9189 74.4281 47.732 73.3923 47.732V48.732ZM75.7249 49.2131C76.3792 49.5184 76.9177 49.9363 77.3479 50.4669L78.1247 49.8371C77.5949 49.1837 76.9334 48.6736 76.1478 48.3069L75.7249 49.2131ZM77.3522 50.4721C77.7824 50.9883 78.1038 51.6114 78.3108 52.3508L79.2738 52.0812C79.0328 51.2206 78.6503 50.4677 78.1204 49.8319L77.3522 50.4721ZM78.3134 52.3597C78.5382 53.109 78.6523 53.9162 78.6523 54.784H79.6523C79.6523 53.8278 79.5264 52.923 79.2712 52.0723L78.3134 52.3597ZM78.6523 54.784C78.6523 55.7306 78.5225 56.571 78.2709 57.311L79.2177 57.633C79.5101 56.773 79.6523 55.8214 79.6523 54.784H78.6523ZM78.2709 57.311C78.0183 58.054 77.6582 58.6823 77.1946 59.2038L77.942 59.8682C78.5024 59.2377 78.9263 58.49 79.2177 57.633L78.2709 57.311ZM77.1894 59.2097C76.7434 59.7277 76.1962 60.132 75.5412 60.4231L75.9474 61.3369C76.7324 60.988 77.4012 60.4963 77.9472 59.8623L77.1894 59.2097ZM75.5461 60.421C74.9122 60.6947 74.1968 60.836 73.3923 60.836V61.836C74.3159 61.836 75.1685 61.6733 75.9425 61.339L75.5461 60.421ZM78.1163 54.784C78.1163 54.0118 78.0324 53.2827 77.8614 52.5987L76.8912 52.8413C77.0403 53.4373 77.1163 54.0842 77.1163 54.784H78.1163ZM77.8614 52.5987C77.6882 51.9061 77.4159 51.2937 77.0373 50.7707L76.2273 51.3573C76.5207 51.7623 76.7444 52.2539 76.8912 52.8413L77.8614 52.5987ZM77.0419 50.7773C76.6588 50.2299 76.1644 49.8001 75.5653 49.4915L75.1073 50.3805C75.5643 50.6159 75.9339 50.9381 76.2227 51.3507L77.0419 50.7773ZM75.5653 49.4915C74.9488 49.1739 74.2174 49.028 73.3923 49.028V50.028C74.1033 50.028 74.6678 50.1541 75.1073 50.3805L75.5653 49.4915ZM73.3923 49.028C72.5725 49.028 71.8369 49.1941 71.2044 49.5475L71.6922 50.4205C72.1477 50.1659 72.7081 50.028 73.3923 50.028V49.028ZM71.2089 49.5451C70.6112 49.8711 70.1192 50.3173 69.7384 50.8796L70.5663 51.4404C70.8574 51.0107 71.2294 50.6729 71.6877 50.4229L71.2089 49.5451ZM69.7427 50.8733C69.3675 51.4093 69.0962 52.0268 68.9232 52.7187L69.8934 52.9613C70.0404 52.3732 70.2651 51.8707 70.5619 51.4467L69.7427 50.8733ZM68.924 52.7158C68.7531 53.3821 68.6683 54.0719 68.6683 54.784H69.6683C69.6683 54.1521 69.7435 53.5459 69.8926 52.9642L68.924 52.7158ZM68.6683 54.784C68.6683 55.5901 68.7607 56.3462 68.9494 57.0496L69.9152 56.7904C69.7519 56.1818 69.6683 55.5139 69.6683 54.784H68.6683ZM68.9534 57.0637C69.1601 57.7526 69.457 58.3601 69.85 58.8782L70.6467 58.2738C70.3357 57.8639 70.0886 57.3674 69.9112 56.7763L68.9534 57.0637ZM69.85 58.8782C70.2499 59.4054 70.7519 59.8158 71.3502 60.1059L71.7865 59.2061C71.3288 58.9842 70.9507 58.6746 70.6467 58.2738L69.85 58.8782ZM71.3502 60.1059C71.9569 60.4001 72.6417 60.54 73.3923 60.54V59.54C72.7669 59.54 72.2357 59.4239 71.7865 59.2061L71.3502 60.1059ZM73.3923 60.54C74.2074 60.54 74.9341 60.3838 75.5517 60.0469L75.0729 59.1691C74.6345 59.4082 74.0813 59.54 73.3923 59.54V60.54ZM75.5562 60.0445C76.1655 59.704 76.6648 59.2516 77.0463 58.6884L76.2184 58.1276C75.9279 58.5564 75.5472 58.904 75.0684 59.1715L75.5562 60.0445ZM77.0463 58.6884C77.4169 58.1413 77.6874 57.5277 77.8607 56.8522L76.892 56.6038C76.7452 57.1763 76.5197 57.6827 76.2184 58.1276L77.0463 58.6884ZM77.8607 56.8522C78.0315 56.1859 78.1163 55.4961 78.1163 54.784H77.1163C77.1163 55.4159 77.0411 56.0221 76.892 56.6038L77.8607 56.8522ZM91.5283 61.336L91.5183 61.836H91.5283V61.336ZM89.2723 60.904L89.0884 61.369L89.0921 61.3704L89.2723 60.904ZM87.4483 59.68L87.0841 60.0227L87.0895 60.0282L87.4483 59.68ZM86.2243 57.64L85.7557 57.8146L85.7557 57.8146L86.2243 57.64ZM86.1283 52.24L86.6064 52.3864L86.6072 52.3837L86.1283 52.24ZM89.0083 48.76L89.2197 49.2132L89.2279 49.2092L89.0083 48.76ZM94.0723 48.76L93.8526 49.2093L93.8608 49.2131L94.0723 48.76ZM95.8723 50.152L95.4838 50.4669L95.4881 50.4721L95.8723 50.152ZM96.9283 52.216L96.4467 52.3508L96.4493 52.3597L96.9283 52.216ZM96.8803 57.472L97.3536 57.633L97.3536 57.633L96.8803 57.472ZM95.7043 59.536L95.3305 59.2038L95.3254 59.2097L95.7043 59.536ZM93.8803 60.88L94.0785 61.3391L94.0833 61.3369L93.8803 60.88ZM95.5123 52.72L95.9973 52.5987L95.9973 52.5987L95.5123 52.72ZM94.7683 51.064L94.3586 51.3508L94.3633 51.3573L94.7683 51.064ZM93.4723 49.936L93.7012 49.4915L93.7012 49.4915L93.4723 49.936ZM89.5843 49.984L89.8237 50.423L89.8282 50.4205L89.5843 49.984ZM88.2883 51.16L88.6979 51.4468L88.7022 51.4404L88.2883 51.16ZM87.5443 52.84L88.0286 52.9642L88.0293 52.9613L87.5443 52.84ZM87.5683 56.92L87.0853 57.0496L87.0872 57.0566L87.0893 57.0637L87.5683 56.92ZM88.3843 58.576L87.9859 58.8782L87.9859 58.8782L88.3843 58.576ZM89.7043 59.656L89.4861 60.1059L89.4861 60.1059L89.7043 59.656ZM93.4483 59.608L93.6877 60.047L93.6922 60.0445L93.4483 59.608ZM94.7683 58.408L95.1822 58.6884L95.1822 58.6884L94.7683 58.408ZM95.5123 56.728L95.9966 56.8522L95.9966 56.8522L95.5123 56.728ZM91.5383 60.8361C90.793 60.8212 90.0989 60.6874 89.4525 60.4376L89.0921 61.3704C89.8536 61.6646 90.6635 61.8188 91.5183 61.8359L91.5383 60.8361ZM89.4561 60.439C88.8357 60.1937 88.2869 59.8262 87.807 59.3318L87.0895 60.0282C87.6656 60.6218 88.3328 61.0703 89.0884 61.369L89.4561 60.439ZM87.8124 59.3373C87.3529 58.8492 86.9773 58.2292 86.6928 57.4654L85.7557 57.8146C86.0792 58.6828 86.5196 59.4228 87.0842 60.0227L87.8124 59.3373ZM86.6928 57.4654C86.4141 56.7173 86.2683 55.8267 86.2683 54.784H85.2683C85.2683 55.9173 85.4264 56.9307 85.7557 57.8146L86.6928 57.4654ZM86.2683 54.784C86.2683 53.9161 86.3824 53.1179 86.6064 52.3864L85.6502 52.0936C85.3941 52.9301 85.2683 53.8279 85.2683 54.784H86.2683ZM86.6072 52.3837C86.8302 51.6401 87.1615 51.0036 87.5966 50.4669L86.8199 49.8371C86.295 50.4844 85.9063 51.2399 85.6493 52.0963L86.6072 52.3837ZM87.5966 50.4669C88.0268 49.9363 88.5654 49.5184 89.2197 49.2131L88.7968 48.3069C88.0111 48.6736 87.3497 49.1837 86.8199 49.8371L87.5966 50.4669ZM89.2279 49.2092C89.8673 48.8966 90.6295 48.732 91.5283 48.732V47.732C90.507 47.732 89.5893 47.9194 88.7887 48.3108L89.2279 49.2092ZM91.5283 48.732C92.4444 48.732 93.2143 48.8971 93.8526 49.2092L94.2919 48.3108C93.4902 47.9189 92.5641 47.732 91.5283 47.732V48.732ZM93.8608 49.2131C94.5151 49.5184 95.0537 49.9363 95.4839 50.4669L96.2606 49.8371C95.7308 49.1837 95.0694 48.6736 94.2837 48.3069L93.8608 49.2131ZM95.4881 50.4721C95.9183 50.9883 96.2397 51.6114 96.4468 52.3508L97.4097 52.0812C97.1688 51.2206 96.7862 50.4677 96.2564 49.8319L95.4881 50.4721ZM96.4493 52.3597C96.6741 53.109 96.7883 53.9162 96.7883 54.784H97.7883C97.7883 53.8278 97.6624 52.923 97.4072 52.0723L96.4493 52.3597ZM96.7883 54.784C96.7883 55.7306 96.6585 56.571 96.4069 57.311L97.3536 57.633C97.646 56.773 97.7883 55.8214 97.7883 54.784H96.7883ZM96.4069 57.311C96.1543 58.054 95.7941 58.6823 95.3306 59.2038L96.078 59.8682C96.6384 59.2377 97.0623 58.49 97.3536 57.633L96.4069 57.311ZM95.3254 59.2097C94.8794 59.7277 94.3322 60.132 93.6772 60.4231L94.0833 61.3369C94.8683 60.988 95.5371 60.4963 96.0831 59.8623L95.3254 59.2097ZM93.682 60.421C93.0481 60.6947 92.3327 60.836 91.5283 60.836V61.836C92.4518 61.836 93.3044 61.6733 94.0785 61.339L93.682 60.421ZM96.2523 54.784C96.2523 54.0118 96.1683 53.2827 95.9973 52.5987L95.0272 52.8413C95.1762 53.4373 95.2523 54.0842 95.2523 54.784H96.2523ZM95.9973 52.5987C95.8242 51.9061 95.5519 51.2937 95.1732 50.7707L94.3633 51.3573C94.6566 51.7623 94.8803 52.2539 95.0272 52.8413L95.9973 52.5987ZM95.1779 50.7773C94.7947 50.2299 94.3003 49.8001 93.7012 49.4915L93.2433 50.3805C93.7002 50.6159 94.0698 50.9381 94.3586 51.3507L95.1779 50.7773ZM93.7012 49.4915C93.0847 49.1739 92.3533 49.028 91.5283 49.028V50.028C92.2392 50.028 92.8038 50.1541 93.2433 50.3805L93.7012 49.4915ZM91.5283 49.028C90.7085 49.028 89.9729 49.1941 89.3403 49.5475L89.8282 50.4205C90.2836 50.1659 90.8441 50.028 91.5283 50.028V49.028ZM89.3448 49.5451C88.7471 49.8711 88.2552 50.3173 87.8743 50.8796L88.7022 51.4404C88.9933 51.0107 89.3654 50.6729 89.8237 50.4229L89.3448 49.5451ZM87.8786 50.8733C87.5035 51.4093 87.2322 52.0268 87.0592 52.7187L88.0293 52.9613C88.1764 52.3732 88.4011 51.8707 88.6979 51.4467L87.8786 50.8733ZM87.0599 52.7158C86.8891 53.3821 86.8043 54.0719 86.8043 54.784H87.8043C87.8043 54.1521 87.8794 53.5459 88.0286 52.9642L87.0599 52.7158ZM86.8043 54.784C86.8043 55.5901 86.8966 56.3462 87.0853 57.0496L88.0512 56.7904C87.8879 56.1818 87.8043 55.5139 87.8043 54.784H86.8043ZM87.0893 57.0637C87.296 57.7526 87.5929 58.3601 87.9859 58.8782L88.7826 58.2738C88.4716 57.8639 88.2245 57.3674 88.0472 56.7763L87.0893 57.0637ZM87.9859 58.8782C88.3859 59.4054 88.8878 59.8158 89.4861 60.1059L89.9224 59.2061C89.4647 58.9842 89.0866 58.6746 88.7826 58.2738L87.9859 58.8782ZM89.4861 60.1059C90.0929 60.4001 90.7777 60.54 91.5283 60.54V59.54C90.9029 59.54 90.3716 59.4239 89.9224 59.2061L89.4861 60.1059ZM91.5283 60.54C92.3433 60.54 93.0701 60.3838 93.6877 60.0469L93.2088 59.1691C92.7704 59.4082 92.2172 59.54 91.5283 59.54V60.54ZM93.6922 60.0445C94.3014 59.704 94.8007 59.2516 95.1822 58.6884L94.3543 58.1276C94.0638 58.5564 93.6831 58.904 93.2043 59.1715L93.6922 60.0445ZM95.1822 58.6884C95.5528 58.1413 95.8234 57.5277 95.9966 56.8522L95.0279 56.6038C94.8811 57.1763 94.6557 57.6827 94.3543 58.1276L95.1822 58.6884ZM95.9966 56.8522C96.1674 56.1859 96.2523 55.4961 96.2523 54.784H95.2523C95.2523 55.4159 95.1771 56.0221 95.0279 56.6038L95.9966 56.8522ZM114.032 52.744L113.553 52.8877L113.554 52.891L114.032 52.744ZM113.192 51.088L112.789 51.3837L112.795 51.3913L112.8 51.3987L113.192 51.088ZM111.872 49.96L111.627 50.3958L111.635 50.4003L111.643 50.4045L111.872 49.96ZM108.176 49.984L108.41 50.426L108.42 50.4205L108.176 49.984ZM106.064 52.984L106.551 53.0998L106.551 53.0973L106.064 52.984ZM105.872 55.168H106.372V55.1578L106.372 55.1476L105.872 55.168ZM106.184 57.256L105.711 57.4178L105.714 57.4254L105.717 57.4329L106.184 57.256ZM108.44 59.728L108.24 60.1862L108.252 60.1912L108.44 59.728ZM111.92 59.632L111.691 59.1875L111.691 59.1875L111.92 59.632ZM113.24 58.528L113.639 58.8302L113.643 58.8237L113.24 58.528ZM114.032 56.848L113.552 56.7075L113.55 56.7154L114.032 56.848ZM114.32 43.72V43.22H113.82V43.72H114.32ZM115.76 43.72H116.26V43.22H115.76V43.72ZM115.76 61V61.5H116.26V61H115.76ZM114.32 61H113.82V61.5H114.32V61ZM114.32 58.816H114.82V58.316H114.32V58.816ZM114.272 58.816V58.316H113.963L113.825 58.5924L114.272 58.816ZM113.456 59.92L113.801 60.2825L113.801 60.2821L113.456 59.92ZM112.376 60.688L112.145 60.2443L112.138 60.2484L112.376 60.688ZM105.632 59.464L105.233 59.7657L105.238 59.7718L105.243 59.7777L105.632 59.464ZM104.648 57.376L105.132 57.2502L105.132 57.2502L104.648 57.376ZM104.672 52.312L104.191 52.1772L104.191 52.1772L104.672 52.312ZM105.68 50.224L105.283 49.9207L105.281 49.9223L105.68 50.224ZM107.408 48.784L107.636 49.2291L107.64 49.2271L107.408 48.784ZM112.4 48.832L112.177 49.2793L112.187 49.2844L112.4 48.832ZM114.32 50.56L113.892 50.8186L114.82 52.3545V50.56H114.32ZM114.82 54.736C114.82 53.986 114.718 53.2722 114.51 52.597L113.554 52.891C113.731 53.4638 113.82 54.078 113.82 54.736H114.82ZM114.511 52.6003C114.303 51.9074 113.996 51.2969 113.584 50.7773L112.8 51.3987C113.124 51.8071 113.377 52.3006 113.553 52.8877L114.511 52.6003ZM113.595 50.7923C113.198 50.25 112.698 49.823 112.101 49.5155L111.643 50.4045C112.102 50.641 112.483 50.966 112.789 51.3837L113.595 50.7923ZM112.117 49.5242C111.522 49.1894 110.852 49.028 110.12 49.028V50.028C110.701 50.028 111.198 50.1546 111.627 50.3958L112.117 49.5242ZM110.12 49.028C109.3 49.028 108.565 49.1941 107.932 49.5475L108.42 50.4205C108.876 50.1659 109.436 50.028 110.12 50.028V49.028ZM107.942 49.5421C107.326 49.8682 106.817 50.3229 106.42 50.9007L107.244 51.4673C107.551 51.0211 107.938 50.6758 108.41 50.4259L107.942 49.5421ZM106.42 50.9007C106.028 51.4708 105.749 52.1301 105.577 52.8707L106.551 53.0973C106.699 52.4619 106.932 51.9212 107.244 51.4673L106.42 50.9007ZM105.578 52.8682C105.406 53.5903 105.339 54.3647 105.373 55.1884L106.372 55.1476C106.341 54.4033 106.403 53.7217 106.551 53.0998L105.578 52.8682ZM105.372 55.168C105.372 55.9954 105.482 56.7477 105.711 57.4178L106.657 57.0942C106.471 56.5483 106.372 55.9086 106.372 55.168H105.372ZM105.717 57.4329C105.961 58.0779 106.296 58.6388 106.729 59.1071L107.464 58.4289C107.128 58.0652 106.856 57.6181 106.652 57.0791L105.717 57.4329ZM106.729 59.1071C107.159 59.5732 107.664 59.934 108.24 60.1861L108.641 59.2699C108.193 59.074 107.801 58.7948 107.464 58.4289L106.729 59.1071ZM108.252 60.1912C108.83 60.4258 109.454 60.54 110.12 60.54V59.54C109.57 59.54 109.075 59.4462 108.628 59.2648L108.252 60.1912ZM110.12 60.54C110.861 60.54 111.542 60.3895 112.149 60.0765L111.691 59.1875C111.243 59.4185 110.723 59.54 110.12 59.54V60.54ZM112.149 60.0765C112.742 59.771 113.241 59.3549 113.639 58.8302L112.842 58.2258C112.536 58.6291 112.154 58.949 111.691 59.1875L112.149 60.0765ZM113.643 58.8237C114.035 58.2892 114.324 57.6726 114.514 56.9806L113.55 56.7154C113.388 57.3034 113.149 57.8068 112.837 58.2323L113.643 58.8237ZM114.512 56.9884C114.719 56.2825 114.82 55.5308 114.82 54.736H113.82C113.82 55.4452 113.73 56.1015 113.552 56.7076L114.512 56.9884ZM114.32 44.22H115.76V43.22H114.32V44.22ZM115.26 43.72V61H116.26V43.72H115.26ZM115.76 60.5H114.32V61.5H115.76V60.5ZM114.82 61V58.816H113.82V61H114.82ZM114.32 58.316H114.272V59.316H114.32V58.316ZM113.825 58.5924C113.643 58.9568 113.405 59.2779 113.111 59.5579L113.801 60.2821C114.179 59.9221 114.486 59.5072 114.719 59.0396L113.825 58.5924ZM113.112 59.5575C112.826 59.8286 112.505 60.0575 112.146 60.2444L112.607 61.1316C113.047 60.9025 113.446 60.6194 113.801 60.2825L113.112 59.5575ZM112.138 60.2484C111.788 60.4381 111.424 60.5835 111.046 60.6852L111.306 61.6508C111.76 61.5285 112.197 61.3539 112.614 61.1276L112.138 60.2484ZM111.046 60.6852C110.669 60.7867 110.305 60.836 109.952 60.836V61.836C110.399 61.836 110.851 61.7733 111.306 61.6508L111.046 60.6852ZM109.952 60.836C108.998 60.836 108.22 60.6767 107.6 60.3808L107.169 61.2832C107.957 61.6593 108.891 61.836 109.952 61.836V60.836ZM107.6 60.3808C106.959 60.0752 106.436 59.6648 106.022 59.1503L105.243 59.7777C105.756 60.4152 106.401 60.9168 107.169 61.2832L107.6 60.3808ZM106.031 59.1623C105.627 58.6284 105.325 57.9937 105.132 57.2502L104.164 57.5018C104.387 58.3583 104.742 59.1156 105.233 59.7657L106.031 59.1623ZM105.132 57.2502C104.936 56.4953 104.836 55.6819 104.836 54.808H103.836C103.836 55.7581 103.945 56.6567 104.164 57.5018L105.132 57.2502ZM104.836 54.808C104.836 53.9877 104.942 53.2012 105.154 52.4468L104.191 52.1772C103.954 53.0228 103.836 53.9003 103.836 54.808H104.836ZM105.154 52.4468C105.363 51.7 105.673 51.0622 106.079 50.5257L105.281 49.9223C104.791 50.5698 104.43 51.324 104.191 52.1772L105.154 52.4468ZM106.078 50.5273C106.496 49.9793 107.014 49.5475 107.636 49.2291L107.18 48.3389C106.427 48.7245 105.792 49.2527 105.283 49.9207L106.078 50.5273ZM107.64 49.2271C108.26 48.9029 109.002 48.732 109.88 48.732V47.732C108.871 47.732 107.964 47.9291 107.177 48.3409L107.64 49.2271ZM109.88 48.732C110.681 48.732 111.445 48.9133 112.177 49.2792L112.624 48.3848C111.756 47.9507 110.839 47.732 109.88 47.732V48.732ZM112.187 49.2844C112.915 49.6266 113.48 50.1354 113.892 50.8186L114.748 50.3014C114.233 49.4486 113.518 48.8054 112.613 48.3796L112.187 49.2844ZM114.82 50.56V43.72H113.82V50.56H114.82ZM125.08 55.84L125.578 55.7985L125.54 55.34H125.08V55.84ZM125.584 57.808L125.137 58.0316L125.141 58.0396L125.145 58.0474L125.584 57.808ZM126.664 59.104L126.357 59.4987L126.364 59.504L126.664 59.104ZM128.2 59.848L128.066 60.3299L128.079 60.3331L128.2 59.848ZM132.04 59.776L131.878 59.303L131.878 59.303L132.04 59.776ZM133.408 59.008L133.745 59.3781L133.753 59.3697L133.408 59.008ZM134.176 57.856L133.713 57.6674L133.71 57.6748L133.707 57.6823L134.176 57.856ZM133.984 54.856L134.388 54.561L134.388 54.561L133.984 54.856ZM132.784 53.848L132.538 54.283L132.546 54.2878L132.555 54.2923L132.784 53.848ZM131.104 53.2L130.98 53.6843L130.983 53.6851L131.104 53.2ZM129.16 52.744L129.042 53.23L129.055 53.2329L129.16 52.744ZM127.216 52.192L127.058 52.6664L127.062 52.6675L127.216 52.192ZM125.536 51.352L125.24 51.7553L125.247 51.7598L125.536 51.352ZM124.36 50.008L123.921 50.2466L123.924 50.2519L124.36 50.008ZM124.264 46.168L123.809 45.9601L123.804 45.971L124.264 46.168ZM125.368 44.68L125.04 44.3029L125.034 44.3084L125.368 44.68ZM127.216 43.648L127.052 43.1758L127.052 43.1758L127.216 43.648ZM132.304 43.672L132.127 44.1397L132.131 44.141L132.304 43.672ZM134.128 44.8L133.774 45.1536L133.781 45.1595L134.128 44.8ZM135.208 46.432L135.675 46.2525L135.675 46.2525L135.208 46.432ZM135.568 48.424V48.924H136.068V48.424H135.568ZM134.008 48.424H133.508V48.924H134.008V48.424ZM133.648 46.72L133.195 46.9315L133.201 46.9436L133.648 46.72ZM132.712 45.544L133.015 45.1459L133.015 45.1459L132.712 45.544ZM131.344 44.872L131.209 45.3533L131.209 45.3533L131.344 44.872ZM127.648 45.016L127.834 45.4803L127.84 45.4775L127.648 45.016ZM125.608 47.128L126.089 47.2654L126.089 47.2654L125.608 47.128ZM125.536 48.472L126.029 48.3875L126.028 48.3841L125.536 48.472ZM127.504 50.656L127.304 51.1142L127.316 51.1192L127.504 50.656ZM129.184 51.184L129.069 51.6705L129.076 51.6723L129.084 51.6738L129.184 51.184ZM131.08 51.616L130.959 52.1012L130.97 52.1038L131.08 51.616ZM132.928 52.144L132.762 52.6157L132.766 52.6171L132.928 52.144ZM134.536 52.984L134.838 52.5857L134.838 52.5857L134.536 52.984ZM135.64 54.352L135.19 54.5705L135.194 54.5783L135.198 54.5859L135.64 54.352ZM127.264 61.096L127.413 60.6187L127.404 60.616L127.264 61.096ZM125.272 60.064L124.947 60.4437L124.953 60.449L125.272 60.064ZM123.952 58.312L123.493 58.5103L123.499 58.5229L123.952 58.312ZM123.496 55.84V55.34H122.996V55.84H123.496ZM124.582 55.8815C124.65 56.6967 124.83 57.4177 125.137 58.0316L126.031 57.5844C125.794 57.1103 125.638 56.5193 125.578 55.7985L124.582 55.8815ZM125.145 58.0474C125.463 58.6297 125.866 59.1165 126.357 59.4987L126.971 58.7093C126.598 58.4195 126.281 58.0423 126.023 57.5686L125.145 58.0474ZM126.364 59.504C126.865 59.8798 127.434 60.1542 128.066 60.3298L128.334 59.3662C127.814 59.2218 127.359 59.0002 126.964 58.704L126.364 59.504ZM128.079 60.3331C128.698 60.488 129.355 60.564 130.048 60.564V59.564C129.429 59.564 128.854 59.496 128.321 59.3629L128.079 60.3331ZM130.048 60.564C130.856 60.564 131.577 60.4633 132.202 60.249L131.878 59.303C131.383 59.4727 130.776 59.564 130.048 59.564V60.564ZM132.202 60.249C132.811 60.0401 133.331 59.7536 133.744 59.378L133.072 58.638C132.781 58.9024 132.389 59.1279 131.878 59.303L132.202 60.249ZM133.753 59.3697C134.157 58.9842 134.457 58.5369 134.645 58.0297L133.707 57.6823C133.575 58.0391 133.363 58.3598 133.063 58.6463L133.753 59.3697ZM134.639 58.0446C134.84 57.551 134.94 57.0308 134.94 56.488H133.94C133.94 56.9052 133.864 57.297 133.713 57.6674L134.639 58.0446ZM134.94 56.488C134.94 55.7421 134.771 55.0854 134.388 54.561L133.58 55.151C133.805 55.4586 133.94 55.8899 133.94 56.488H134.94ZM134.388 54.561C134.034 54.0773 133.572 53.6922 133.013 53.4037L132.555 54.2923C132.988 54.5158 133.326 54.8027 133.58 55.151L134.388 54.561ZM133.031 53.413C132.504 53.1149 131.901 52.8838 131.225 52.7149L130.983 53.6851C131.587 53.8362 132.104 54.0371 132.538 54.283L133.031 53.413ZM131.228 52.7157C130.597 52.5539 129.943 52.4004 129.265 52.2551L129.055 53.2329C129.721 53.3756 130.363 53.5261 130.98 53.6843L131.228 52.7157ZM129.279 52.2582C128.635 52.1012 127.999 51.9206 127.371 51.7165L127.062 52.6675C127.713 52.8794 128.373 53.0668 129.042 53.2298L129.279 52.2582ZM127.374 51.7177C126.793 51.524 126.278 51.2655 125.825 50.9442L125.247 51.7598C125.786 52.1425 126.391 52.444 127.058 52.6663L127.374 51.7177ZM125.832 50.9488C125.412 50.6412 125.067 50.2485 124.797 49.7641L123.924 50.2519C124.261 50.8555 124.7 51.3588 125.24 51.7552L125.832 50.9488ZM124.799 49.7695C124.546 49.3029 124.404 48.6872 124.404 47.896H123.404C123.404 48.8008 123.566 49.5931 123.921 50.2465L124.799 49.7695ZM124.404 47.896C124.404 47.3737 124.51 46.8646 124.724 46.365L123.804 45.971C123.539 46.5914 123.404 47.2343 123.404 47.896H124.404ZM124.719 46.3759C124.945 45.8811 125.271 45.4401 125.703 45.0516L125.034 44.3084C124.505 44.7839 124.095 45.3349 123.809 45.9601L124.719 46.3759ZM125.696 45.057C126.136 44.6739 126.694 44.3591 127.38 44.1202L127.052 43.1758C126.266 43.4489 125.592 43.8221 125.04 44.303L125.696 45.057ZM127.38 44.1202C128.053 43.8863 128.844 43.764 129.76 43.764V42.764C128.757 42.764 127.851 42.8977 127.052 43.1758L127.38 44.1202ZM129.76 43.764C130.691 43.764 131.477 43.8939 132.127 44.1397L132.481 43.2043C131.691 42.9061 130.781 42.764 129.76 42.764V43.764ZM132.131 44.141C132.81 44.3919 133.353 44.732 133.775 45.1536L134.482 44.4464C133.943 43.908 133.271 43.4961 132.477 43.203L132.131 44.141ZM133.781 45.1595C134.208 45.5728 134.527 46.0554 134.741 46.6115L135.675 46.2525C135.409 45.5606 135.008 44.9552 134.476 44.4405L133.781 45.1595ZM134.741 46.6115C134.958 47.1752 135.068 47.7781 135.068 48.424H136.068C136.068 47.6619 135.938 46.9368 135.675 46.2525L134.741 46.6115ZM135.568 47.924H134.008V48.924H135.568V47.924ZM134.508 48.424C134.508 47.7074 134.377 47.0596 134.095 46.4964L133.201 46.9436C133.399 47.3404 133.508 47.8286 133.508 48.424H134.508ZM134.101 46.5086C133.845 45.9592 133.483 45.5017 133.015 45.1459L132.41 45.9421C132.741 46.1943 133.003 46.5208 133.195 46.9314L134.101 46.5086ZM133.015 45.1459C132.562 44.8017 132.048 44.5507 131.479 44.3907L131.209 45.3533C131.664 45.4813 132.062 45.6783 132.41 45.9421L133.015 45.1459ZM131.479 44.3907C130.922 44.234 130.349 44.156 129.76 44.156V45.156C130.259 45.156 130.742 45.222 131.209 45.3533L131.479 44.3907ZM129.76 44.156C128.883 44.156 128.109 44.2821 127.456 44.5545L127.84 45.4775C128.339 45.2699 128.973 45.156 129.76 45.156V44.156ZM127.462 44.5518C126.847 44.798 126.331 45.1327 125.935 45.5669L126.673 46.2411C126.949 45.9393 127.329 45.682 127.834 45.4802L127.462 44.5518ZM125.935 45.5669C125.55 45.9879 125.278 46.4632 125.127 46.9906L126.089 47.2654C126.194 46.8968 126.386 46.5561 126.673 46.2411L125.935 45.5669ZM125.127 46.9906C124.979 47.5101 124.95 48.0351 125.044 48.5599L126.028 48.3841C125.962 48.0129 125.981 47.6419 126.089 47.2654L125.127 46.9906ZM125.043 48.5565C125.154 49.204 125.421 49.7556 125.863 50.1777L126.553 49.4543C126.291 49.2044 126.11 48.86 126.029 48.3875L125.043 48.5565ZM125.863 50.1777C126.263 50.5595 126.746 50.8701 127.304 51.1141L127.704 50.1979C127.238 49.9939 126.857 49.7445 126.553 49.4543L125.863 50.1777ZM127.316 51.1192C127.854 51.338 128.439 51.5214 129.069 51.6705L129.299 50.6975C128.713 50.5586 128.178 50.39 127.692 50.1928L127.316 51.1192ZM129.084 51.6738C129.7 51.8003 130.325 51.9427 130.959 52.1011L131.201 51.1309C130.555 50.9693 129.916 50.8237 129.285 50.6942L129.084 51.6738ZM130.97 52.1038C131.592 52.2437 132.189 52.4145 132.762 52.6157L133.094 51.6723C132.483 51.4575 131.848 51.2763 131.19 51.1282L130.97 52.1038ZM132.766 52.6171C133.329 52.8096 133.817 53.0657 134.234 53.3823L134.838 52.5857C134.328 52.1983 133.743 51.8944 133.09 51.6709L132.766 52.6171ZM134.234 53.3823C134.631 53.6836 134.95 54.0762 135.19 54.5705L136.09 54.1335C135.786 53.5078 135.369 52.9884 134.838 52.5857L134.234 53.3823ZM135.198 54.5859C135.437 55.037 135.572 55.6382 135.572 56.416H136.572C136.572 55.5298 136.419 54.755 136.082 54.1181L135.198 54.5859ZM135.572 56.416C135.572 57.8868 135.073 58.9733 134.104 59.745L134.728 60.527C135.968 59.5387 136.572 58.1452 136.572 56.416H135.572ZM134.104 59.745C133.119 60.5302 131.693 60.956 129.76 60.956V61.956C131.827 61.956 133.505 61.5018 134.728 60.527L134.104 59.745ZM129.76 60.956C128.909 60.956 128.128 60.8421 127.413 60.6188L127.115 61.5732C127.936 61.8299 128.819 61.956 129.76 61.956V60.956ZM127.404 60.616C126.695 60.4092 126.093 60.0953 125.591 59.679L124.953 60.449C125.571 60.9607 126.297 61.3348 127.124 61.576L127.404 60.616ZM125.597 59.6844C125.093 59.2522 124.696 58.7263 124.405 58.1011L123.499 58.5229C123.848 59.2737 124.331 59.9158 124.947 60.4436L125.597 59.6844ZM124.411 58.1138C124.14 57.4851 123.996 56.7311 123.996 55.84H122.996C122.996 56.8369 123.157 57.7309 123.493 58.5102L124.411 58.1138ZM123.496 56.34H125.08V55.34H123.496V56.34ZM151.8 54.472H152.3V53.719L151.606 54.0112L151.8 54.472ZM149.952 54.976L149.888 54.4801L149.888 54.4801L149.952 54.976ZM148.08 55.168L148.116 55.6667L148.118 55.6665L148.08 55.168ZM145.488 55.912L145.211 55.4959L145.206 55.4993L145.488 55.912ZM144.792 58.816L144.345 59.0396L144.352 59.0548L144.361 59.0695L144.792 58.816ZM145.392 59.512L145.08 59.9024L145.094 59.9138L145.109 59.924L145.392 59.512ZM146.256 59.92L146.112 60.3989L146.126 60.4031L146.14 60.4064L146.256 59.92ZM148.944 59.824L149.072 60.3074L149.072 60.3074L148.944 59.824ZM150.384 59.176L150.669 59.5871L150.672 59.5849L150.384 59.176ZM151.416 58.048L151.85 58.2961L151.854 58.2895L151.416 58.048ZM149.376 53.752L149.318 53.2554L149.31 53.2563L149.376 53.752ZM150.336 53.608L150.254 53.1148L150.25 53.1154L150.336 53.608ZM151.272 53.344L151.483 53.7971L151.483 53.7971L151.272 53.344ZM151.704 52.792L151.217 52.6775L151.215 52.6886L151.213 52.6999L151.704 52.792ZM151.08 50.248L150.72 50.5955L150.726 50.6016L150.732 50.6075L151.08 50.248ZM147.336 49.672L147.43 50.163L147.439 50.1613L147.448 50.1592L147.336 49.672ZM146.232 50.128L146.514 50.5407L146.519 50.5376L146.232 50.128ZM145.464 50.992L145.029 50.7459L145.025 50.7526L145.464 50.992ZM145.08 52.336V52.836H145.525L145.577 52.3944L145.08 52.336ZM143.616 52.336L143.117 52.3035L143.082 52.836H143.616V52.336ZM144.12 50.464L144.556 50.7092L144.559 50.7034L144.12 50.464ZM145.224 49.192L145.515 49.5989L145.517 49.597L145.224 49.192ZM146.808 48.472L146.926 48.9579L146.935 48.9555L146.808 48.472ZM150.48 48.448L150.352 48.9314L150.36 48.9335L150.369 48.9354L150.48 48.448ZM151.92 49.096L151.617 49.4941L151.626 49.5008L151.635 49.5071L151.92 49.096ZM152.88 50.272L152.424 50.4779L152.43 50.4898L152.88 50.272ZM153.528 59.944L153.208 60.3281L153.225 60.3424L153.243 60.3551L153.528 59.944ZM154.752 59.824H155.252V59.1069L154.579 59.3548L154.752 59.824ZM154.752 60.952L154.889 61.4328L155.252 61.3292V60.952H154.752ZM154.248 61.096L154.111 60.6151L154.101 60.6181L154.248 61.096ZM152.976 61.12L153.088 60.6328L153.065 60.6275L153.042 60.6244L152.976 61.12ZM152.4 60.904L152.068 61.2777L152.08 61.2886L152.093 61.2987L152.4 60.904ZM152.04 60.472L151.585 60.6789L151.597 60.7048L151.611 60.7292L152.04 60.472ZM151.872 59.92L151.378 59.996L151.379 60.0022L151.872 59.92ZM151.824 59.272H152.324V57.9741L151.453 58.9365L151.824 59.272ZM145.608 61.12L145.469 61.6002L145.473 61.6013L145.608 61.12ZM144.288 60.448L144.598 60.056L144.288 60.448ZM143.376 59.344L142.929 59.5676L142.932 59.5742L143.376 59.344ZM147.384 54.016L147.318 53.5203L147.318 53.5203L147.384 54.016ZM151.606 54.0112C151.038 54.2505 150.465 54.4061 149.888 54.4801L150.016 55.4719C150.687 55.3859 151.346 55.2055 151.994 54.9328L151.606 54.0112ZM149.888 54.4801C149.273 54.559 148.657 54.6221 148.042 54.6695L148.118 55.6665C148.751 55.6179 149.383 55.553 150.016 55.4719L149.888 54.4801ZM148.044 54.6693C146.892 54.7528 145.933 55.0145 145.211 55.496L145.765 56.328C146.291 55.9775 147.06 55.7432 148.116 55.6667L148.044 54.6693ZM145.206 55.4993C144.439 56.0237 144.076 56.8238 144.076 57.808H145.076C145.076 57.0962 145.321 56.6323 145.77 56.3247L145.206 55.4993ZM144.076 57.808C144.076 58.2548 144.16 58.67 144.345 59.0396L145.239 58.5924C145.136 58.386 145.076 58.1292 145.076 57.808H144.076ZM144.361 59.0695C144.551 59.3926 144.791 59.6714 145.08 59.9024L145.704 59.1216C145.513 58.9686 145.353 58.7834 145.223 58.5625L144.361 59.0695ZM145.109 59.924C145.411 60.1316 145.746 60.2891 146.112 60.3989L146.4 59.4411C146.126 59.3589 145.885 59.2444 145.675 59.1L145.109 59.924ZM146.14 60.4064C146.513 60.4952 146.888 60.54 147.264 60.54V59.54C146.968 59.54 146.671 59.5048 146.372 59.4336L146.14 60.4064ZM147.264 60.54C147.882 60.54 148.485 60.4627 149.072 60.3074L148.816 59.3406C148.315 59.4733 147.798 59.54 147.264 59.54V60.54ZM149.072 60.3074C149.666 60.1502 150.2 59.9116 150.669 59.5871L150.099 58.7649C149.736 59.0164 149.31 59.2098 148.816 59.3406L149.072 60.3074ZM150.672 59.5849C151.162 59.2397 151.557 58.8093 151.85 58.2961L150.982 57.7999C150.763 58.1827 150.47 58.5043 150.096 58.7671L150.672 59.5849ZM151.854 58.2895C152.157 57.7394 152.3 57.1094 152.3 56.416H151.3C151.3 56.9706 151.187 57.4286 150.978 57.8065L151.854 58.2895ZM152.3 56.416V54.472H151.3V56.416H152.3ZM149.434 54.2486C149.718 54.2152 150.048 54.1657 150.422 54.1006L150.25 53.1154C149.888 53.1783 149.578 53.2248 149.318 53.2554L149.434 54.2486ZM150.418 54.1012C150.828 54.0329 151.188 53.9349 151.483 53.7971L151.061 52.8909C150.876 52.9771 150.612 53.0551 150.254 53.1148L150.418 54.1012ZM151.483 53.7971C151.867 53.6183 152.117 53.3017 152.195 52.8841L151.213 52.6999C151.195 52.7943 151.157 52.8457 151.061 52.8909L151.483 53.7971ZM152.191 52.9065C152.261 52.6058 152.3 52.3187 152.3 52.048H151.3C151.3 52.2253 151.274 52.4342 151.217 52.6775L152.191 52.9065ZM152.3 52.048C152.3 51.1918 152.015 50.4569 151.427 49.8885L150.732 50.6075C151.104 50.9671 151.3 51.4322 151.3 52.048H152.3ZM151.439 49.9005C150.834 49.2745 149.872 49.028 148.704 49.028V50.028C149.775 50.028 150.398 50.2615 150.72 50.5955L151.439 49.9005ZM148.704 49.028C148.176 49.028 147.682 49.0791 147.224 49.1848L147.448 50.1592C147.822 50.0729 148.24 50.028 148.704 50.028V49.028ZM147.242 49.181C146.762 49.2732 146.328 49.4507 145.945 49.7184L146.519 50.5376C146.776 50.3573 147.078 50.2308 147.43 50.163L147.242 49.181ZM145.95 49.7153C145.574 49.9724 145.269 50.3213 145.029 50.746L145.899 51.238C146.075 50.9267 146.282 50.6996 146.514 50.5407L145.95 49.7153ZM145.025 50.7526C144.793 51.1771 144.652 51.6919 144.583 52.2776L145.577 52.3944C145.636 51.8921 145.75 51.5109 145.903 51.2314L145.025 50.7526ZM145.08 51.836H143.616V52.836H145.08V51.836ZM144.115 52.3685C144.159 51.6887 144.313 51.1414 144.556 50.7091L143.684 50.2189C143.351 50.8106 143.169 51.5113 143.117 52.3035L144.115 52.3685ZM144.559 50.7034C144.814 50.2355 145.134 49.871 145.515 49.5989L144.933 48.7851C144.418 49.153 144.002 49.6365 143.681 50.2246L144.559 50.7034ZM145.517 49.597C145.925 49.3014 146.393 49.0875 146.926 48.9578L146.69 47.9862C146.039 48.1445 145.451 48.4106 144.931 48.787L145.517 49.597ZM146.935 48.9555C147.499 48.8072 148.096 48.732 148.728 48.732V47.732C148.016 47.732 147.333 47.8168 146.681 47.9885L146.935 48.9555ZM148.728 48.732C149.313 48.732 149.854 48.7995 150.352 48.9314L150.608 47.9646C150.018 47.8085 149.391 47.732 148.728 47.732V48.732ZM150.369 48.9354C150.869 49.0498 151.282 49.2389 151.617 49.4941L152.222 48.6979C151.758 48.3451 151.211 48.1022 150.591 47.9606L150.369 48.9354ZM151.635 49.5071C151.971 49.7395 152.235 50.058 152.424 50.4778L153.336 50.0662C153.077 49.494 152.701 49.0285 152.205 48.6849L151.635 49.5071ZM152.43 50.4898C152.629 50.9004 152.74 51.4292 152.74 52.096H153.74C153.74 51.3228 153.611 50.6356 153.33 50.0542L152.43 50.4898ZM152.74 52.096V58.864H153.74V52.096H152.74ZM152.74 58.864C152.74 59.168 152.766 59.4454 152.829 59.6828C152.891 59.9163 153.002 60.1567 153.208 60.3281L153.848 59.5599C153.862 59.5713 153.829 59.5517 153.795 59.4252C153.762 59.3026 153.74 59.12 153.74 58.864H152.74ZM153.243 60.3551C153.489 60.5254 153.785 60.5445 154.039 60.5196C154.302 60.4938 154.601 60.4124 154.925 60.2932L154.579 59.3548C154.295 59.4596 154.086 59.5102 153.941 59.5244C153.787 59.5395 153.775 59.5066 153.813 59.5329L153.243 60.3551ZM154.252 59.824V60.952H155.252V59.824H154.252ZM154.615 60.4712C154.503 60.5032 154.335 60.5512 154.111 60.6152L154.385 61.5768C154.609 61.5128 154.777 61.4648 154.889 61.4328L154.615 60.4712ZM154.101 60.6181C153.938 60.6681 153.78 60.692 153.624 60.692V61.692C153.884 61.692 154.142 61.6519 154.395 61.5739L154.101 60.6181ZM153.624 60.692C153.436 60.692 153.258 60.6719 153.088 60.6328L152.864 61.6072C153.11 61.6641 153.364 61.692 153.624 61.692V60.692ZM153.042 60.6244C152.862 60.6004 152.762 60.5519 152.707 60.5093L152.093 61.2987C152.326 61.4801 152.61 61.5756 152.91 61.6156L153.042 60.6244ZM152.732 60.5303C152.625 60.4349 152.538 60.3299 152.469 60.2148L151.611 60.7292C151.734 60.9341 151.887 61.1171 152.068 61.2777L152.732 60.5303ZM152.495 60.2651C152.433 60.1291 152.39 59.987 152.365 59.8378L151.379 60.0022C151.418 60.237 151.487 60.4629 151.585 60.6789L152.495 60.2651ZM152.366 59.844C152.338 59.6627 152.324 59.4722 152.324 59.272H151.324C151.324 59.5198 151.342 59.7613 151.378 59.996L152.366 59.844ZM151.453 58.9365C150.889 59.5601 150.249 60.0297 149.531 60.3519L149.941 61.2641C150.791 60.8823 151.543 60.3279 152.195 59.6075L151.453 58.9365ZM149.531 60.3519C148.815 60.6732 148.038 60.836 147.192 60.836V61.836C148.17 61.836 149.088 61.6468 149.941 61.2641L149.531 60.3519ZM147.192 60.836C146.693 60.836 146.21 60.77 145.743 60.6387L145.473 61.6013C146.03 61.758 146.603 61.836 147.192 61.836V60.836ZM145.747 60.6398C145.31 60.5129 144.929 60.3176 144.598 60.056L143.978 60.84C144.415 61.1864 144.914 61.4391 145.469 61.6002L145.747 60.6398ZM144.598 60.056C144.269 59.7956 144.011 59.4826 143.82 59.1138L142.932 59.5742C143.189 60.0694 143.539 60.4924 143.978 60.84L144.598 60.056ZM143.823 59.1204C143.641 58.7551 143.54 58.3067 143.54 57.76H142.54C142.54 58.4293 142.663 59.0369 142.929 59.5676L143.823 59.1204ZM143.54 57.76C143.54 56.8323 143.851 56.1371 144.452 55.6187C145.073 55.0835 146.051 54.6972 147.45 54.5117L147.318 53.5203C145.821 53.7188 144.627 54.1485 143.8 54.8613C142.953 55.5909 142.54 56.5757 142.54 57.76H143.54ZM147.45 54.5117L149.442 54.2477L149.31 53.2563L147.318 53.5203L147.45 54.5117ZM160.48 48.568V48.068H159.753L160.013 48.7465L160.48 48.568ZM162.04 48.568L162.508 48.3911L162.385 48.068H162.04V48.568ZM166.072 59.224L165.604 59.4009L166.072 60.6369L166.54 59.4009L166.072 59.224ZM170.104 48.568V48.068H169.758L169.636 48.3911L170.104 48.568ZM171.664 48.568L172.13 48.7489L172.394 48.068H171.664V48.568ZM166.84 61V61.5H167.182L167.306 61.1809L166.84 61ZM165.232 61L164.765 61.1785L164.888 61.5H165.232V61ZM160.48 49.068H162.04V48.068H160.48V49.068ZM161.572 48.7449L165.604 59.4009L166.54 59.0471L162.508 48.3911L161.572 48.7449ZM166.54 59.4009L170.572 48.7449L169.636 48.3911L165.604 59.0471L166.54 59.4009ZM170.104 49.068H171.664V48.068H170.104V49.068ZM171.198 48.3871L166.374 60.8191L167.306 61.1809L172.13 48.7489L171.198 48.3871ZM166.84 60.5H165.232V61.5H166.84V60.5ZM165.699 60.8215L160.947 48.3895L160.013 48.7465L164.765 61.1785L165.699 60.8215ZM187.6 53.92V54.42H188.1V53.92H187.6ZM187.336 52.216L186.856 52.3571L186.859 52.3656L186.862 52.3741L187.336 52.216ZM186.592 50.824L186.201 51.1363L186.208 51.145L186.216 51.1533L186.592 50.824ZM185.368 49.888L185.15 50.3382L185.162 50.3437L185.368 49.888ZM181.96 49.888L181.742 49.4379L181.736 49.4408L181.96 49.888ZM180.712 50.848L180.336 50.5176L180.329 50.5264L180.712 50.848ZM179.896 52.24L179.431 52.0567L179.431 52.0567L179.896 52.24ZM179.488 53.92L178.991 53.8663L178.931 54.42H179.488V53.92ZM179.488 55.12V54.62H178.988V55.12H179.488ZM179.752 57.04L179.272 57.179L179.273 57.1825L179.752 57.04ZM180.52 58.6L180.12 58.9L180.126 58.908L180.132 58.9158L180.52 58.6ZM181.84 59.656L181.611 60.1006L181.622 60.1059L181.84 59.656ZM186.088 59.296L185.791 58.8937L185.791 58.8937L186.088 59.296ZM187.432 57.184V56.684H187.04L186.946 57.0647L187.432 57.184ZM189.04 57.184L189.519 57.3265L189.71 56.684H189.04V57.184ZM188.344 58.84L188.776 59.0911L188.78 59.0851L188.344 58.84ZM187.264 60.16L187.588 60.5407L187.596 60.5337L187.264 60.16ZM185.728 61.024L185.562 60.5523L185.728 61.024ZM179.32 59.464L178.926 59.7725L178.931 59.7777L179.32 59.464ZM178.288 57.4L177.806 57.5348L177.807 57.5374L178.288 57.4ZM178.336 52.264L177.862 52.103L177.86 52.1116L178.336 52.264ZM179.464 50.176L179.076 49.8599L179.076 49.8611L179.464 50.176ZM181.264 48.76L181.479 49.2113L181.487 49.2072L181.264 48.76ZM187.696 50.008L187.31 50.326L187.312 50.3286L187.696 50.008ZM189.136 55.12V55.62H189.632L189.636 55.1236L189.136 55.12ZM188.1 53.92C188.1 53.2632 188.005 52.6414 187.81 52.0579L186.862 52.3741C187.019 52.8466 187.1 53.3608 187.1 53.92H188.1ZM187.816 52.0749C187.637 51.4692 187.357 50.939 186.968 50.4947L186.216 51.1533C186.499 51.477 186.714 51.8748 186.856 52.3571L187.816 52.0749ZM186.982 50.5117C186.61 50.0461 186.137 49.6867 185.574 49.4323L185.162 50.3437C185.591 50.5373 185.934 50.8019 186.201 51.1363L186.982 50.5117ZM185.586 49.4379C185.012 49.1602 184.367 49.028 183.664 49.028V50.028C184.241 50.028 184.732 50.1358 185.15 50.3381L185.586 49.4379ZM183.664 49.028C182.961 49.028 182.316 49.1602 181.742 49.4379L182.178 50.3381C182.596 50.1358 183.087 50.028 183.664 50.028V49.028ZM181.736 49.4408C181.199 49.7094 180.731 50.0689 180.337 50.5177L181.087 51.1783C181.396 50.8271 181.761 50.5466 182.183 50.3352L181.736 49.4408ZM180.329 50.5264C179.955 50.9712 179.657 51.4828 179.431 52.0567L180.361 52.4233C180.551 51.9412 180.796 51.5248 181.095 51.1696L180.329 50.5264ZM179.431 52.0567C179.206 52.6283 179.059 53.232 178.991 53.8663L179.985 53.9737C180.044 53.424 180.17 52.9077 180.361 52.4233L179.431 52.0567ZM179.488 54.42H187.6V53.42H179.488V54.42ZM178.988 55.12C178.988 55.8361 179.082 56.5231 179.272 57.179L180.232 56.901C180.07 56.3409 179.988 55.7479 179.988 55.12H178.988ZM179.273 57.1825C179.464 57.8254 179.745 58.4 180.12 58.9L180.92 58.3C180.623 57.904 180.392 57.4386 180.231 56.8975L179.273 57.1825ZM180.132 58.9158C180.531 59.4046 181.026 59.7991 181.611 60.1005L182.069 59.2115C181.598 58.9689 181.213 58.6594 180.908 58.2842L180.132 58.9158ZM181.622 60.1059C182.229 60.4001 182.913 60.54 183.664 60.54V59.54C183.038 59.54 182.507 59.4239 182.058 59.2061L181.622 60.1059ZM183.664 60.54C184.7 60.54 185.616 60.2659 186.385 59.6983L185.791 58.8937C185.216 59.3181 184.516 59.54 183.664 59.54V60.54ZM186.385 59.6983C187.163 59.1242 187.669 58.3137 187.917 57.3033L186.946 57.0647C186.747 57.8783 186.357 58.4758 185.791 58.8937L186.385 59.6983ZM187.432 57.684H189.04V56.684H187.432V57.684ZM188.561 57.0415C188.395 57.5996 188.177 58.117 187.908 58.5949L188.78 59.0851C189.087 58.539 189.333 57.9524 189.519 57.3265L188.561 57.0415ZM187.911 58.5889C187.65 59.0386 187.324 59.4373 186.932 59.7863L187.596 60.5337C188.067 60.1147 188.461 59.6334 188.776 59.0911L187.911 58.5889ZM186.94 59.7794C186.559 60.1035 186.102 60.3625 185.562 60.5523L185.894 61.4957C186.537 61.2695 187.105 60.9525 187.588 60.5406L186.94 59.7794ZM185.562 60.5523C185.035 60.7376 184.405 60.836 183.664 60.836V61.836C184.491 61.836 185.237 61.7264 185.894 61.4957L185.562 60.5523ZM183.664 60.836C182.727 60.836 181.947 60.6773 181.307 60.3789L180.884 61.2851C181.685 61.6587 182.616 61.836 183.664 61.836V60.836ZM181.307 60.3789C180.651 60.0727 180.122 59.6625 179.709 59.1503L178.931 59.7777C179.446 60.4175 180.101 60.9193 180.884 61.2851L181.307 60.3789ZM179.713 59.1556C179.293 58.6185 178.976 57.9898 178.769 57.2626L177.807 57.5374C178.047 58.3782 178.419 59.1255 178.926 59.7724L179.713 59.1556ZM178.769 57.2652C178.559 56.5131 178.452 55.7028 178.452 54.832H177.452C177.452 55.7852 177.569 56.6869 177.806 57.5348L178.769 57.2652ZM178.452 54.832C178.452 53.9673 178.573 53.1631 178.812 52.4164L177.86 52.1116C177.587 52.9649 177.452 53.8727 177.452 54.832H178.452ZM178.809 52.425C179.064 51.6748 179.413 51.0323 179.852 50.4909L179.076 49.8611C178.554 50.5037 178.151 51.2532 177.863 52.103L178.809 52.425ZM179.851 50.4921C180.301 49.9409 180.842 49.5152 181.479 49.2112L181.049 48.3088C180.277 48.6768 179.619 49.1951 179.076 49.8599L179.851 50.4921ZM181.487 49.2072C182.113 48.8945 182.835 48.732 183.664 48.732V47.732C182.701 47.732 181.823 47.9215 181.04 48.3128L181.487 49.2072ZM183.664 48.732C185.246 48.732 186.441 49.2715 187.31 50.326L188.082 49.69C186.999 48.3765 185.506 47.732 183.664 47.732V48.732ZM187.312 50.3286C188.184 51.3713 188.651 52.9405 188.636 55.1164L189.636 55.1236C189.652 52.8195 189.16 50.9807 188.08 49.6874L187.312 50.3286ZM189.136 54.62H179.488V55.62H189.136V54.62ZM198.248 61V61.5H198.748V61H198.248ZM196.808 61H196.308V61.5H196.808V61ZM196.808 48.568V48.068H196.308V48.568H196.808ZM198.248 48.568H198.748V48.068H198.248V48.568ZM198.248 50.896H197.748V51.396H198.248V50.896ZM198.296 50.896V51.396H198.633L198.76 51.083L198.296 50.896ZM199.832 48.832L200.094 49.2578L200.097 49.256L199.832 48.832ZM202.352 48.232H202.852V47.732H202.352V48.232ZM202.352 49.792L202.342 50.2919L202.852 50.3019V49.792H202.352ZM200.336 50.176L200.107 49.7315L200.107 49.7315L200.336 50.176ZM199.064 51.28L198.652 50.9961L198.646 51.006L199.064 51.28ZM198.416 52.936L197.925 52.8379L197.924 52.8477L198.416 52.936ZM198.248 60.5H196.808V61.5H198.248V60.5ZM197.308 61V48.568H196.308V61H197.308ZM196.808 49.068H198.248V48.068H196.808V49.068ZM197.748 48.568V50.896H198.748V48.568H197.748ZM198.248 51.396H198.296V50.396H198.248V51.396ZM198.76 51.083C199.137 50.1464 199.594 49.5653 200.094 49.2578L199.57 48.4062C198.821 48.8667 198.254 49.6616 197.832 50.709L198.76 51.083ZM200.097 49.256C200.633 48.9211 201.371 48.732 202.352 48.732V47.732C201.252 47.732 200.311 47.9429 199.567 48.408L200.097 49.256ZM201.852 48.232V49.792H202.852V48.232H201.852ZM202.362 49.2921C201.492 49.275 200.731 49.41 200.107 49.7315L200.565 50.6205C200.997 50.398 201.579 50.277 202.342 50.2919L202.362 49.2921ZM200.107 49.7315C199.51 50.0391 199.021 50.4607 198.652 50.9961L199.475 51.5639C199.746 51.1713 200.106 50.8569 200.565 50.6205L200.107 49.7315ZM198.646 51.006C198.301 51.5321 198.064 52.1461 197.926 52.8379L198.906 53.0341C199.024 52.4459 199.219 51.9559 199.482 51.554L198.646 51.006ZM197.924 52.8477C197.806 53.5032 197.748 54.1889 197.748 54.904H198.748C198.748 54.2431 198.802 53.6168 198.908 53.0243L197.924 52.8477ZM197.748 54.904V61H198.748V54.904H197.748Z" fill="black"/>
</svg>
