<svg width="47" height="51" viewBox="0 0 47 51" fill="none" xmlns="http://www.w3.org/2000/svg">
<path d="M10.4012 43.0387C10.2922 44.4404 12.2315 44.895 13.1908 43.6928L29.9069 22.7435C30.5649 21.9188 30.2342 20.8481 29.2502 20.6174L14.4335 17.1436C13.4495 16.9129 12.3754 17.6542 12.3007 18.6156L10.4012 43.0387Z" fill="#FA7268"/>
<path d="M24.2751 10.7015C24.2662 16.5913 22.452 21.3633 20.223 21.3599C17.9941 21.3565 16.1944 16.579 16.2034 10.6892C16.2123 4.79928 18.0265 0.0273336 20.2555 0.030728C22.4844 0.0341224 24.2841 4.81157 24.2751 10.7015Z" fill="#76CA8F"/>
<path d="M30.7599 14.5264C25.6235 18.9561 20.0996 21.6481 18.4219 20.539C16.7443 19.43 19.5481 14.9398 24.6845 10.5101C29.8209 6.0803 35.3448 3.38834 37.0225 4.49741C38.7002 5.60648 35.8963 10.0966 30.7599 14.5264Z" fill="#76CA8F"/>
<path d="M34.0535 18.8354C27.0882 21.4836 20.6279 22.4119 19.624 20.9088C18.6201 19.4056 23.4528 16.0403 30.4181 13.3921C37.3833 10.7439 43.8436 9.81562 44.8475 11.3188C45.8514 12.8219 41.0188 16.1872 34.0535 18.8354Z" fill="#76CA8F"/>
</svg>
